<?xml version="1.0" encoding="UTF-8" standalone="no"?>
<!-- Created with Inkscape (http://www.inkscape.org/) -->

<svg
   xmlns:dc="http://purl.org/dc/elements/1.1/"
   xmlns:cc="http://creativecommons.org/ns#"
   xmlns:rdf="http://www.w3.org/1999/02/22-rdf-syntax-ns#"
   xmlns:svg="http://www.w3.org/2000/svg"
   xmlns="http://www.w3.org/2000/svg"
   xmlns:sodipodi="http://sodipodi.sourceforge.net/DTD/sodipodi-0.dtd"
   xmlns:inkscape="http://www.inkscape.org/namespaces/inkscape"
   width="600"
   height="570"
   id="svg2"
   version="1.1"
   inkscape:version="0.47 r22583"
   sodipodi:docname="Hugeiea-pentagram.svg">
  <title
     id="title2880">Hugieia Pentagram - Allman (1889)</title>
  <defs
     id="defs4">
    <inkscape:perspective
       sodipodi:type="inkscape:persp3d"
       inkscape:vp_x="0 : 526.18109 : 1"
       inkscape:vp_y="0 : 1000 : 0"
       inkscape:vp_z="744.09448 : 526.18109 : 1"
       inkscape:persp3d-origin="372.04724 : 350.78739 : 1"
       id="perspective10" />
    <inkscape:perspective
       id="perspective2824"
       inkscape:persp3d-origin="0.5 : 0.33333333 : 1"
       inkscape:vp_z="1 : 0.5 : 1"
       inkscape:vp_y="0 : 1000 : 0"
       inkscape:vp_x="0 : 0.5 : 1"
       sodipodi:type="inkscape:persp3d" />
  </defs>
  <sodipodi:namedview
     id="base"
     pagecolor="#ffffff"
     bordercolor="#666666"
     borderopacity="1.0"
     inkscape:pageopacity="0.0"
     inkscape:pageshadow="2"
     inkscape:zoom="1"
     inkscape:cx="360.93823"
     inkscape:cy="293.49333"
     inkscape:document-units="px"
     inkscape:current-layer="layer1"
     showgrid="false"
     inkscape:window-width="733"
     inkscape:window-height="691"
     inkscape:window-x="161"
     inkscape:window-y="161"
     inkscape:window-maximized="0" />
  <metadata
     id="metadata7">
    <rdf:RDF>
      <cc:Work
         rdf:about="">
        <dc:format>image/svg+xml</dc:format>
        <dc:type
           rdf:resource="http://purl.org/dc/dcmitype/StillImage" />
        <dc:title>Hugieia Pentagram - Allman (1889)</dc:title>
        <dc:date>2010-07-07</dc:date>
        <dc:source>http://books.google.com/books?id=-gYCAAAAYAAJ&amp;pg=PA26</dc:source>
        <dc:description>Allman, G. J. (1889) Greek Geometry From Thales to Euclid. Dublin: Hodges, Figgis &amp; Co., p.26</dc:description>
        <dc:rights>
          <cc:Agent>
            <dc:title />
          </cc:Agent>
        </dc:rights>
        <dc:publisher>
          <cc:Agent>
            <dc:title>Google Books</dc:title>
          </cc:Agent>
        </dc:publisher>
        <dc:creator>
          <cc:Agent>
            <dc:title>Machine Elf 1735</dc:title>
          </cc:Agent>
        </dc:creator>
        <dc:identifier>http://en.wikipedia.org/wiki/File:Hugieia-pentagram.svg</dc:identifier>
        <dc:language>en-US</dc:language>
        <cc:license
           rdf:resource="http://creativecommons.org/licenses/publicdomain/" />
        <dc:subject>
          <rdf:Bag>
            <rdf:li>Pythagorean Pentagram Health Hygeia HUGIEIA</rdf:li>
          </rdf:Bag>
        </dc:subject>
      </cc:Work>
      <cc:License
         rdf:about="http://creativecommons.org/licenses/publicdomain/">
        <cc:permits
           rdf:resource="http://creativecommons.org/ns#Reproduction" />
        <cc:permits
           rdf:resource="http://creativecommons.org/ns#Distribution" />
        <cc:permits
           rdf:resource="http://creativecommons.org/ns#DerivativeWorks" />
      </cc:License>
    </rdf:RDF>
  </metadata>
  <g
     inkscape:label="Layer 1"
     inkscape:groupmode="layer"
     id="layer1"
     transform="translate(-24.000082,-58.647876)">
    <path
       style="fill:#000000"
       d="m 313.62508,84.741626 c -0.18866,-0.0017 -0.36942,0.01433 -0.5625,0.03125 -1.54462,0.135345 -3.22585,0.855375 -5.15625,2.15625 -3.0137,2.03093 -3.40625,2.79413 -3.40625,6.75 0,3.84222 0.31175,4.51007 2.21875,4.78125 2.1285,0.30267 2.2011,0.62303 1.625,8.093754 -0.5583,7.23947 -0.44655,7.92017 1.71875,9.9375 3.0271,2.82018 5.64025,2.72498 10.15625,-0.34375 2.0235,-1.375 4.0802,-2.5 4.5625,-2.5 1.5412,0 11.21875,-17.253864 11.21875,-20.000004 0,-3.16123 -4.06055,-7.34365 -6.65625,-6.84375 -2.5018,0.4818 -5.93135,7.37277 -6.59375,13.250004 -0.4994,4.43094 -1.8042,6.55375 -4.125,6.59375 -0.5093,0.009 -0.56525,-2.45057 -0.0937,-5.75 1.2608,-8.823684 0.9193,-13.184994 -1.1875,-14.781254 -1.17154,-0.887613 -2.39814,-1.362859 -3.71875,-1.375 z m 10.28125,37.937504 c -2.1478,-0.0215 -2.9421,0.80485 -4.75,4.96875 -4.8591,11.19125 -6.19855,14.68329 -7.09375,18.5 -1.7895,7.62987 -5.4549,19.27573 -7.1875,22.75 -0.4763,0.95504 -0.875,2.62242 -0.875,3.71875 0,2.05218 -1.77705,7.15797 -5.21875,15.03125 -1.0819,2.475 -2.36455,5.4 -2.84375,6.5 -0.4793,1.1 -1.61905,4.35415 -2.53125,7.25 -0.9123,2.89586 -2.04735,5.5134 -2.53125,5.8125 -0.484,0.2991 -0.875,1.54871 -0.875,2.78125 0,1.23254 -0.37425,2.69625 -0.84375,3.21875 -0.4696,0.5225 -2.3056,5.6625 -4.0625,11.4375 -1.7568,5.775 -3.85765,11.97509 -4.65625,13.78125 -0.7986,1.80616 -1.4375,4.31616 -1.4375,5.5625 0,1.24634 -0.426,2.69625 -0.9375,3.21875 -1.1622,1.18722 -3.64285,7.9497 -6.03125,16.4375 -1.006,3.575 -3.0063,8.86519 -4.4375,11.75 -1.4311,2.8848 -2.59375,6.34909 -2.59375,7.6875 0,3.06914 -2.7284,5.87758 -4.875,5.03125 -0.8916,-0.35153 -16.25,-0.80039 -34.125,-1 -17.875,-0.19961 -44.425,-0.79219 -59,-1.3125 -14.575,-0.52025 -31.9,-0.77285 -38.5,-0.5625 -34.667,1.10486 -35.1725,1.19807 -32.3125,5.28125 1.8026,2.57362 11.24575,10.125 12.65625,10.125 0.5814,0 1.40395,0.58813 1.84375,1.3125 0.4399,0.72438 4.1875,3.86428 8.3125,6.96875 14.5052,10.91653 23.5541,17.98235 29,22.65625 3.025,2.59617 6.85,5.58183 8.5,6.625 1.65,1.04317 3.225,2.14567 3.5,2.46875 0.275,0.32308 3.875,3.0792 8,6.125 4.125,3.0458 8.3755,6.52164 9.4375,7.71875 1.062,1.19712 6.42045,5.43454 11.90625,9.40625 5.4859,3.97172 12.4853,9.40975 15.5625,12.09375 3.0771,2.68399 6.75515,5.60899 8.15625,6.5 1.401,0.891 4.6635,3.41478 7.25,5.59375 5.2845,4.45195 5.7481,6.51284 2.8125,12.3125 -1.0329,2.04059 -2.2146,5.25713 -2.625,7.15625 -0.4103,1.89912 -2.75385,8.19912 -5.21875,14 -2.4649,5.80088 -4.87355,11.9125 -5.34375,13.5625 -0.8802,3.08929 -4.75035,13.8305 -6.78125,18.8125 -0.6312,1.5483 -1.15625,3.08262 -1.15625,3.40625 0,0.32362 -1.0624,2.88443 -2.375,5.6875 -1.3127,2.80307 -2.71445,6.66875 -3.09375,8.59375 -0.8301,4.21234 -3.10065,10.98627 -5.59375,16.625 -1.0067,2.27681 -2.15475,5.42681 -2.53125,7 -0.3766,1.57319 -1.09955,3.40075 -1.59375,4.03125 -0.8392,1.0706 -4.8106,12.06509 -6.8125,18.84375 -0.4873,1.65 -1.84985,5.7 -3.03125,9 -1.1814,3.3 -2.74065,8.475 -3.46875,11.5 -0.7281,3.025 -1.8296,7.43977 -2.4375,9.8125 -1.2456,4.86104 -0.8148,6.1875 2,6.1875 2.198,0 12.92075,-7.19948 20.40625,-13.6875 2.7405,-2.37538 5.34755,-4.3125 5.78125,-4.3125 0.9262,0 8.6464,-4.93493 10.5625,-6.75 0.7267,-0.68847 1.9066,-1.25 2.625,-1.25 0.7184,0 1.8233,-0.60366 2.4375,-1.34375 1.0655,-1.28385 16.2068,-11.93577 20.25,-14.25 1.0589,-0.60606 4.05455,-2.76573 6.65625,-4.78125 10.2052,-7.90564 21.6931,-15.92664 24.625,-17.1875 1.6938,-0.72838 5.11875,-3.14639 7.59375,-5.375 2.475,-2.22861 4.8097,-4.06173 5.1875,-4.0625 0.3778,-7.6e-4 5.2448,-3.2625 10.8125,-7.25 5.5676,-3.9875 10.98545,-7.72238 12.03125,-8.3125 1.0457,-0.59012 3.33895,-2.26505 5.09375,-3.71875 l 3.1875,-2.65625 4.9375,4.21875 c 2.7182,2.31882 6.13295,5.10757 7.59375,6.1875 1.4608,1.07993 2.99795,2.50491 3.40625,3.15625 0.4084,0.65134 3.1084,2.73542 6,4.65625 2.8917,1.92083 7.0449,5.44586 9.25,7.84375 2.2051,2.3979 6.0301,5.70265 8.5,7.34375 2.4699,1.6411 5.4,3.76968 6.5,4.71875 3.6094,3.11413 10.2601,8.2421 16,12.3125 3.1023,2.2 6.4796,4.76177 7.5,5.6875 1.0205,0.92572 3.1382,2.48717 4.6875,3.46875 3.5526,2.25087 6.75245,4.9546 10.78125,9.09375 1.7398,1.7875 3.55565,3.25 4.03125,3.25 0.4755,0 3.0159,1.8 5.625,4 2.6091,2.2 5.053,4 5.4375,4 0.3844,0 2.3206,1.37829 4.3125,3.0625 6.226,5.2644 14.9625,11.9375 15.625,11.9375 0.6759,0 7.1065,4.66327 9.3125,6.75 1.7144,1.62175 5.124,1.60027 5.75,-0.0312 0.2689,-0.70064 -0.20115,-3.51314 -1.03125,-6.25 -0.8302,-2.73687 -1.52125,-6.04834 -1.53125,-7.375 -0.0107,-2.3854 -1.5929,-8.41826 -5.0625,-19.09375 -0.9831,-3.025 -2.78005,-9.775 -3.96875,-15 -1.1887,-5.225 -2.7886,-10.69639 -3.5625,-12.15625 -0.774,-1.45986 -1.40625,-3.54792 -1.40625,-4.625 0,-2.59393 -3.63055,-17.07053 -5.90625,-23.5625 -0.9948,-2.83813 -2.6274,-8.53125 -3.625,-12.65625 -0.9976,-4.125 -2.16305,-8.175 -2.59375,-9 -1.5062,-2.88517 -6.87125,-20.90084 -6.90625,-23.1875 -0.0195,-1.26911 -0.68265,-3.4375 -1.46875,-4.8125 -0.786,-1.375 -1.44875,-3.70183 -1.46875,-5.1875 -0.0329,-2.50872 -1.44345,-8.44321 -3.96875,-16.75 -0.9057,-2.97935 -0.7394,-3.76939 1.0625,-5.6875 1.1474,-1.22129 3.4503,-2.7751 5.125,-3.46875 1.6746,-0.69365 4.2061,-2.34122 5.625,-3.65625 1.419,-1.31503 5.72915,-4.48518 9.59375,-7.03125 3.8646,-2.54606 7.25625,-4.89543 7.53125,-5.25 0.4877,-0.6287 2.9004,-1.99005 10,-5.65625 3.5655,-1.84117 4.96965,-2.86564 10.40625,-7.4375 1.709,-1.43719 6.24375,-4.68324 10.09375,-7.21875 10.8313,-7.1332 21.74125,-14.80545 26.53125,-18.65625 6.1541,-4.94747 15.76725,-11.56082 20.46875,-14.09375 2.2,-1.18524 6.0763,-3.67531 8.625,-5.53125 2.5487,-1.85594 5.1746,-3.375 5.8125,-3.375 0.6378,0 2.35525,-1.15752 3.84375,-2.5625 1.4885,-1.40497 5.849,-4.64772 9.6875,-7.21875 12.4033,-8.3077 13.44095,-10.55994 5.28125,-11.59375 -2.8875,-0.36584 -28.2,-0.8705 -56.25,-1.125 -28.05,-0.25449 -64.5009,-0.6988 -81,-0.96875 -33.7418,-0.55206 -31.92115,-0.0783 -33.03125,-8.40625 -0.3383,-2.53823 -1.2396,-5.975 -2,-7.625 -0.7604,-1.65 -1.63825,-5.11907 -1.96875,-7.71875 -0.3306,-2.59968 -1.0443,-4.99222 -1.5625,-5.3125 -0.5183,-0.32028 -0.9375,-1.39616 -0.9375,-2.375 0,-0.97885 -1.04825,-5.3363 -2.34375,-9.6875 -1.2955,-4.3512 -3.137,-11.05625 -4.0625,-14.90625 -0.9255,-3.85 -2.3449,-9.475 -3.1875,-12.5 -0.8426,-3.025 -2.1699,-7.75 -2.9375,-10.5 -0.7675,-2.75 -2.4849,-8.6 -3.8125,-13 -1.3276,-4.4 -3.8245,-13.175 -5.5625,-19.5 -1.7379,-6.325 -4.29225,-15.55 -5.65625,-20.5 -1.364,-4.95 -3.1909,-11.7 -4.0625,-15 -1.572,-5.95218 -3.20605,-10.55198 -6.28125,-17.71875 -1.2476,-2.90768 -2.1739,-3.7299 -4.1875,-3.75 z m -0.5625,13.34375 c 0.92823,0.0537 2.18269,2.58031 3.5625,7.34375 1.2392,4.2775 3.1625,10.70625 4.25,14.28125 2.1214,6.97385 2.42865,8.21413 6.21875,23.5 1.3637,5.5 3.46515,12.925 4.65625,16.5 1.191,3.575 2.76045,8.975 3.46875,12 0.7083,3.025 2.48795,9.55 3.96875,14.5 1.4808,4.95 3.0273,10.575 3.4375,12.5 0.4102,1.925 1.26005,4.48616 1.90625,5.6875 0.6463,1.20134 1.1775,3.22634 1.1875,4.5 0.007,1.27366 1.3566,6.31838 3,11.21875 1.6434,4.90038 3,10.42584 3,12.28125 0,1.85541 1.156,5.66177 2.5625,8.4375 1.5622,3.08285 2.4378,6.28234 2.25,8.21875 l -0.3125,3.15625 -26.5,0 c -14.575,0 -31,-0.28275 -36.5,-0.625 -5.5,-0.34222 -14.5013,-0.44859 -20,-0.25 -10.6203,0.38354 -13.49,-0.0324 -13.5,-1.9375 -0.005,-1.39876 4.55375,-16.46327 6.71875,-22.1875 3.4334,-9.07758 8.4688,-23.22889 9.4375,-26.5 0.57,-1.925 2.08065,-5.75 3.34375,-8.5 1.263,-2.75 3.00035,-7.25 3.84375,-10 2.2277,-7.26373 5.32745,-15.95025 7.03125,-19.71875 0.8155,-1.80383 2.45755,-6.43125 3.65625,-10.28125 1.1987,-3.85 2.53835,-7.9 2.96875,-9 0.4304,-1.1 1.5486,-4.7 2.5,-8 0.9513,-3.3 2.3279,-7.35 3.0625,-9 0.7346,-1.65 1.98065,-5.31378 2.78125,-8.125 0.8007,-2.81122 1.91265,-5.96122 2.46875,-7 1.7406,-3.25168 3.98025,-8.78252 4.34375,-10.78125 0.24141,-1.3275 0.57191,-2.05379 1,-2.1875 0.0589,-0.0184 0.12562,-0.0348 0.1875,-0.0312 z m 250.25,145.0625 c -1.8762,-0.0248 -4.02364,0.7754 -6.5625,2.34375 -5.0614,3.12664 -8.7006,9.40932 -9.625,16.5625 -0.4565,3.53227 -0.1508,4.57379 2.0625,6.90625 3.6789,3.87703 6.5691,3.47647 13.0625,-1.8125 3.0802,-2.50883 6.3431,-4.42464 7.25,-4.25 0.9664,0.18612 1.93075,1.76204 2.34375,3.78125 0.3875,1.89481 1.49175,4.00438 2.46875,4.71875 2.4794,1.813 3.4552,1.66565 8,-1.28125 4.8195,-3.125 8.6919,-8.45837 7.8125,-10.75 -0.9672,-2.52039 -5.68895,-2.04864 -8.40625,0.84375 -3.4371,3.65871 -6,3.33104 -6,-0.78125 0,-2.58043 0.9725,-4.25673 4.5,-7.71875 4.8314,-4.74162 5.4529,-6.42424 2.8125,-7.4375 -1.1215,-0.43034 -2.85365,0.5358 -5.28125,2.90625 -1.9909,1.94409 -4.1533,3.53125 -4.8125,3.53125 -0.6593,0 -2.2038,-1.52427 -3.4375,-3.40625 -1.79139,-2.73281 -3.77524,-4.12431 -6.1875,-4.15625 z m -515.40625,1.59375 c -6.012998,-0.0577 -11.187498,4.17792 -11.187498,9.15625 0,3.80671 2.3882,4.59897 6.75,2.25 l 3.46875,-1.875 1.906248,2.34375 c 1.2598,1.55579 1.875,3.90474 1.875,7.09375 0,5.03487 -1.2037,8.17151 -4.499998,11.71875 -3.5864,3.85953 -5.79935,8.9699 -5.09375,11.78125 0.5628,2.24235 1.1393,2.5782 3.875,2.3125 2.825798,-0.27444 3.627898,-1.13145 6.999998,-7.3125 2.1003,-3.85 4.8605,-8.125 6.125,-9.5 6.0841,-6.61603 13.46225,-19.30554 13.53125,-23.25 0.0416,-2.37932 -0.33285,-2.75 -2.84375,-2.75 -2.2257,0 -3.16555,0.64102 -4.03125,2.75 -1.9344,4.71233 -3.95845,7.75 -5.15625,7.75 -0.6328,0 -1.9977,-2.22658 -3.0625,-4.9375 -2.2988,-5.85216 -4.19575,-7.48845 -8.65625,-7.53125 z m 515.21875,4.96875 c 1.6796,0 3.6045,2.11337 3.5625,3.9375 -0.0455,1.95959 -3.6497,6.16476 -7.1875,8.375 -3.7737,2.35759 -4.11165,2.18034 -3.46875,-1.78125 0.6088,-3.75176 5.16495,-10.53125 7.09375,-10.53125 z m -466.34375,4.28125 58.21875,0.46875 c 32.0232,0.24284 66.31875,0.72986 76.21875,1.09375 l 18,0.65625 0.3125,3.09375 c 0.2932,3.00433 -1.7143,9.62416 -7.25,23.90625 -1.4923,3.85 -2.94325,7.9 -3.21875,9 -0.2755,1.1 -0.91705,2.9 -1.40625,4 -1.1593,2.6069 -3.77375,10.06993 -5.09375,14.5 -0.5735,1.925 -1.4551,4.00002 -1.9375,4.59375 -0.4823,0.59373 -2.0162,4.64373 -3.4375,9 -1.4214,4.35627 -3.25075,9.25625 -4.03125,10.90625 -0.7805,1.65 -1.8749,4.85157 -2.4375,7.125 -1.6895,6.82779 -2.81645,6.97033 -9.78125,1.09375 -7.3626,-6.21224 -11.2715,-9.25992 -16,-12.46875 -1.9348,-1.31298 -5.7201,-4.48658 -8.4375,-7.0625 -2.7174,-2.57592 -5.7082,-4.96267 -6.625,-5.3125 -0.9168,-0.34983 -2.92785,-1.81233 -4.46875,-3.25 -1.5408,-1.43767 -3.03215,-2.625 -3.34375,-2.625 -0.3115,0 -2.22115,-1.36212 -4.21875,-3.03125 -4.614,-3.85524 -4.5274,-3.80116 -12.1875,-9.4375 -3.5413,-2.6057 -6.71095,-5.14091 -7.03125,-5.65625 -0.3203,-0.51533 -3.9719,-3.28952 -8.125,-6.15625 -13.7291,-9.4767 -27.92325,-20.5172 -39.40625,-30.625 l -4.3125,-3.8125 z m 192.3125,2.71875 c 29.50183,0.002 68.55631,0.58756 69.40625,1.4375 1.0484,1.04839 4.21875,10.99048 4.21875,13.21875 0,1.22615 0.3617,2.44017 0.8125,2.71875 0.4507,0.27858 1.62775,4.02112 2.59375,8.3125 0.966,4.29138 2.21905,9.1625 2.78125,10.8125 0.5622,1.65 1.35555,4.575 1.78125,6.5 0.4257,1.925 1.28585,4.76419 1.90625,6.3125 0.6204,1.5483 1.125,4.41212 1.125,6.375 0,3.49279 0.7795,7.25361 3.4375,16.3125 0.7262,2.475 2.1205,7.425 3.0625,11 0.942,3.575 2.30025,7.63837 3.03125,9.03125 0.7311,1.39287 1.47915,3.85335 1.65625,5.46875 0.2822,2.57485 -0.3658,3.40054 -5.1875,6.71875 -3.025,2.08176 -6.9625,4.52112 -8.75,5.40625 -1.7875,0.88514 -3.25,1.96011 -3.25,2.40625 0,0.44614 -3.47105,2.92118 -7.71875,5.5 -4.2476,2.57881 -8.1851,5.26025 -8.75,5.9375 -1.4236,1.70697 -16.21795,11.62351 -20.78125,13.9375 -2.0625,1.04587 -3.75,2.24003 -3.75,2.65625 0,0.41621 -2.29175,2.18212 -5.09375,3.90625 -2.8021,1.72413 -5.6146,3.54438 -6.25,4.0625 -0.6355,0.51813 -4.24595,2.98882 -8.03125,5.46875 -3.7853,2.47992 -7.1992,4.5 -7.5625,4.5 -0.3632,0 -1.96735,-1.53761 -3.59375,-3.40625 -1.6264,-1.86864 -5.44375,-5.33422 -8.46875,-7.71875 -14.6707,-11.56451 -23.8164,-18.62877 -27,-20.84375 -1.925,-1.33932 -3.725,-2.70143 -4,-3.03125 -0.275,-0.32981 -2.75,-2.16582 -5.5,-4.0625 -2.75,-1.89668 -5.8924,-4.3375 -7,-5.4375 -1.1076,-1.1 -4.4826,-3.88416 -7.5,-6.1875 -3.0174,-2.30335 -7.28315,-5.73385 -9.46875,-7.625 l -3.96875,-3.4375 4.3125,-13.375 c 2.3835,-7.3555 5.2105,-15.48554 6.25,-18.0625 1.0395,-2.57696 1.875,-5.53696 1.875,-6.5625 0,-1.02554 0.3998,-2.29 0.875,-2.8125 0.4752,-0.5225 1.38215,-3.1875 2.03125,-5.9375 1.1384,-4.82227 2.6647,-9.19778 7.6875,-22 1.2947,-3.3 3.9096,-10.43743 5.8125,-15.875 1.903,-5.43758 3.9366,-10.37418 4.5,-10.9375 0.50265,-0.50265 14.76765,-0.68882 32.46875,-0.6875 z m 88.65625,0.75 c 10.46445,0.008 29.3284,0.45587 63.46875,1.3125 19.25,0.48301 45.44725,0.92435 58.21875,0.96875 12.7716,0.0444 23.44735,0.43589 23.71875,0.875 0.9066,1.46691 -11.18655,10.73283 -22.90625,17.5625 -1.8483,1.07709 -4.01175,3.10209 -4.84375,4.5 -0.8321,1.39791 -3.23735,3.41723 -5.34375,4.5 -2.1063,1.08279 -5.10155,2.99528 -6.65625,4.25 -1.5547,1.25473 -3.4672,2.28125 -4.25,2.28125 -0.7828,0 -1.4375,0.37193 -1.4375,0.84375 0,0.90925 -8.8041,6.56394 -15.5,9.9375 -2.2,1.10841 -4.85845,2.96648 -5.90625,4.125 -1.0477,1.15853 -2.3977,2.09308 -3,2.09375 -0.6022,6.7e-4 -2.2887,1.01317 -3.75,2.25 -3.0228,2.55853 -4.35915,3.4815 -11.34375,7.875 -2.75,1.72985 -7.025,4.54269 -9.5,6.25 -2.475,1.70731 -6.975,4.81831 -10,6.90625 -3.025,2.08794 -7.525,5.35161 -10,7.25 -2.475,1.89839 -6.7574,5.03839 -9.5,6.96875 -2.7427,1.93036 -5.7434,3.5 -6.6875,3.5 -2.1795,0 -5.6535,-7.56838 -6.875,-15 -1.1276,-6.86026 -6.1105,-23.50839 -9.4375,-31.5 -0.6869,-1.65 -1.96935,-5.925 -2.84375,-9.5 -0.8745,-3.575 -2.31455,-8.975 -3.21875,-12 -0.9042,-3.025 -2.44345,-8.875 -3.40625,-13 -0.9627,-4.125 -2.0288,-8.175 -2.375,-9 -0.3462,-0.825 -0.2117,-2.175 0.3125,-3 0.52775,-0.83058 2.59805,-1.25786 13.0625,-1.25 z m -156.6875,102.25 c 0.8198,0 11.97145,9.05808 14.15625,11.5 0.55,0.6147 3.7079,3.08056 7,5.5 3.2922,2.41944 7.58085,6.01936 9.53125,7.96875 1.9504,1.94938 7.27305,6.18498 11.84375,9.4375 4.5707,3.25252 8.91355,6.53862 9.65625,7.28125 0.7426,0.74262 4.41215,3.39846 8.15625,5.90625 7.4126,4.96486 13.3125,9.98086 13.3125,11.3125 0,0.97588 -9.2182,7.38853 -14,9.75 -2.11,1.04204 -7.5484,4.77778 -9.375,6.4375 -0.8437,0.76661 -4.51575,3.43125 -8.15625,5.90625 -9.825,6.67967 -21.77725,15.26162 -23.28125,16.71875 -0.7268,0.70416 -1.9643,1.28125 -2.75,1.28125 -0.7857,0 -1.4375,0.41359 -1.4375,0.90625 0,0.49267 -2.3625,2.38544 -5.25,4.21875 -2.8875,1.83331 -5.82365,3.88275 -6.53125,4.5625 -0.7075,0.67975 -2.62,2.03714 -4.25,3 -1.6299,0.96285 -2.96875,2.07596 -2.96875,2.5 0,0.42403 -1.4625,1.45601 -3.25,2.28125 -1.7875,0.82523 -6.625,3.96924 -10.75,6.96875 -4.125,2.9995 -12.5593,8.87844 -18.75,13.09375 -6.1906,4.21532 -11.5082,8.07017 -11.8125,8.5625 -0.7978,1.29085 -3.4375,1.12902 -3.4375,-0.21875 0,-1.45494 4.7266,-16.4159 6.4375,-20.375 0.7139,-1.6522 1.6079,-4.4647 2,-6.25 0.3921,-1.78529 1.0738,-3.25 1.5,-3.25 0.4262,0 1.78565,-3.4875 3.03125,-7.75 1.9746,-6.7576 3.937,-12.25436 7.0625,-19.75 0.4587,-1.1 1.12145,-3.125 1.46875,-4.5 0.3474,-1.375 1.23945,-3.85 1.96875,-5.5 2.2793,-5.15653 3.3583,-7.92947 3.875,-10 0.2745,-1.1 1.452,-4.475 2.625,-7.5 4.0051,-10.32864 5.1703,-13.50018 5.6875,-15.5 0.2844,-1.1 0.8742,-2.9 1.3125,-4 2.9423,-7.38516 4.19055,-10.80881 6.15625,-17 1.2224,-3.85 2.51955,-7.45 2.90625,-8 0.3866,-0.55 1.293,-3.475 2,-6.5 1.3608,-5.82255 2.8713,-9 4.3125,-9 z m 164.53125,5 c 1.4347,0 2.94535,3.76454 4.21875,10.46875 0.5186,2.73068 1.36445,5.39568 1.90625,5.9375 0.5418,0.54183 1,2.27644 1,3.84375 0,1.56731 0.61045,4.07731 1.34375,5.5625 0.7332,1.48519 1.8797,5.3875 2.5625,8.6875 1.7394,8.40619 2.58995,11.9916 6.21875,26 0.5699,2.2 1.46215,4.9 1.96875,6 0.5067,1.1 1.33985,4.025 1.84375,6.5 0.5039,2.475 1.6495,6.975 2.5625,10 0.9129,3.025 1.88525,6.625 2.15625,8 0.271,1.375 0.90745,3.4 1.40625,4.5 0.4987,1.1 1.35955,3.8 1.90625,6 0.5467,2.2 2.8222,10.75 5.0625,19 4.8366,17.81013 6.8885,25.72758 6.9375,26.75 0.0639,1.34433 -1.52315,0.79226 -5.03125,-1.75 -1.8943,-1.37282 -4.5326,-3.28532 -5.875,-4.25 -1.3424,-0.96468 -4.3616,-3.325 -6.6875,-5.25 -2.3258,-1.925 -7.46,-5.975 -11.4375,-9 -3.9775,-3.025 -9.47865,-7.52939 -12.21875,-10 -2.7401,-2.4706 -6.15465,-5.20002 -7.59375,-6.09375 -1.4392,-0.89373 -3.72815,-2.86126 -5.09375,-4.34375 -1.3656,-1.48249 -4.0656,-3.64914 -6,-4.8125 -1.9344,-1.16336 -4.20625,-2.68403 -5.03125,-3.40625 -5.0917,-4.45742 -18.2727,-14.63448 -24.8125,-19.125 -4.2196,-2.89741 -8.8125,-6.14104 -10.1875,-7.21875 -3.5203,-2.7592 -10.90985,-8.23187 -13.40625,-9.9375 -3.6893,-2.52073 -7.59375,-6.39416 -7.59375,-7.53125 0,-0.94842 4.6915,-4.29613 15.125,-10.78125 1.4354,-0.89215 3.228,-2.21211 4,-2.9375 2.0995,-1.97274 10.6046,-7.8125 11.375,-7.8125 0.369,0 3.22765,-1.93392 6.34375,-4.3125 3.116,-2.37857 6.5907,-4.96607 7.75,-5.75 24.4791,-16.55261 34.30775,-22.9375 35.28125,-22.9375 z m -239.1875,163.15625 c -0.38316,-0.0105 -0.83439,-0.01 -1.3125,0.0312 -3.4724,0.29845 -3.78975,0.67748 -8.46875,9.8125 -2.6763,5.225 -4.875,10.4 -4.875,11.5 -0.0158,3.85897 2.37275,6.81683 6.46875,8 5.0526,1.45948 8.7983,0.28831 11.5625,-3.59375 4.103,-5.76208 -0.25665,-10.8391 -4.96875,-5.78125 -5.1214,5.49715 -3.5344,-2.68259 3,-15.375 1.63319,-3.1723 1.27584,-4.51995 -1.40625,-4.59375 z m 323.09375,4.96875 c -0.25565,0.002 -0.54635,0.0321 -0.84375,0.0625 -3.154,0.3228 -5.10415,2.90343 -7.96875,10.5625 -1.182,3.1603 -1.37735,3.25 -7.09375,3.25 -5.0312,0 -5.875,-0.2767 -5.875,-1.84375 0,-2.18728 3.52385,-4.2181 8.71875,-5.0625 3.1536,-0.51259 3.78125,-1.02979 3.78125,-3.03125 0,-1.74689 -0.77825,-2.65525 -2.84375,-3.34375 -3.8215,-1.27386 -9.671,1.38645 -16,7.25 -5.9002,5.46634 -7.65625,8.6894 -7.65625,14.03125 0,4.47866 1.70045,6.91863 6.53125,9.4375 3.7485,1.95461 4.8938,1.96656 6.5,0.0312 1.0828,-1.30472 0.78515,-1.98223 -1.96875,-4.28125 -2.3978,-2.00183 -3.16395,-3.35969 -2.90625,-5.1875 0.3301,-2.34079 0.7026,-2.49675 6.625,-2.53125 3.4574,-0.0201 6.77325,0.24115 7.34375,0.59375 0.6682,0.41295 0.2674,2.2879 -1.125,5.25 -2.5313,5.3851 -2.06665,6.6875 2.40625,6.6875 2.5449,0 3.5372,-0.58656 4.4375,-2.5625 0.6383,-1.40088 1.15625,-3.45911 1.15625,-4.59375 0,-1.13463 1.27765,-4.61676 2.84375,-7.71875 6.85219,-13.573 7.77219,-17.02278 3.9375,-17 z"
       id="path2832" />
  </g>
</svg>
