<?xml version="1.0" standalone="no"?>
<svg width="602" height="600" viewBox="0 0 602 600" xmlns="http://www.w3.org/2000/svg">
<title>Venus geocentric perspective orbit curve simplified ("pentagram")</title>
<path transform="translate(301,298.3)scale(0.312,-0.312)" fill="none"
stroke="#000000" stroke-width="10" d="M0,-152.08
C-0.74,-152.08,-1.59,-152.14,-2.33,-152.23
C-3.07,-152.32,-3.92,-152.48,-4.65,-152.67
C-5.38,-152.85,-6.21,-153.12,-6.93,-153.4
C-7.65,-153.67,-8.46,-154.04,-9.17,-154.41
C-9.87,-154.78,-10.66,-155.26,-11.33,-155.72
C-12.01,-156.18,-12.77,-156.76,-13.42,-157.3
C-14.07,-157.85,-14.8,-158.53,-15.41,-159.17
C-16.03,-159.81,-16.72,-160.59,-17.29,-161.31
C-17.87,-162.04,-18.51,-162.91,-19.04,-163.72
C-19.58,-164.53,-20.17,-165.5,-20.65,-166.39
C-21.14,-167.28,-21.67,-168.34,-22.1,-169.32
C-22.54,-170.28,-23,-171.44,-23.38,-172.49
C-23.76,-173.54,-24.16,-174.78,-24.47,-175.9
C-24.79,-177.02,-25.11,-178.35,-25.36,-179.54
C-25.61,-180.73,-25.86,-182.14,-26.04,-183.4
C-26.22,-184.66,-26.38,-186.15,-26.49,-187.47
C-26.59,-188.8,-26.67,-190.35,-26.7,-191.74
C-26.72,-193.13,-26.71,-194.76,-26.66,-196.2
C-26.6,-197.65,-26.49,-199.33,-26.35,-200.83
C-26.21,-202.34,-26,-204.08,-25.77,-205.63
C-25.54,-207.18,-25.23,-208.98,-24.91,-210.58
C-24.59,-212.17,-24.17,-214.02,-23.75,-215.66
C-23.33,-217.29,-22.8,-219.19,-22.29,-220.86
C-21.77,-222.53,-21.13,-224.46,-20.52,-226.17
C-19.9,-227.87,-19.14,-229.84,-18.42,-231.57
C-17.7,-233.3,-16.82,-235.29,-16,-237.05
C-15.17,-238.8,-14.17,-240.82,-13.24,-242.59
C-12.31,-244.36,-11.19,-246.39,-10.15,-248.17
C-9.1,-249.95,-7.85,-251.99,-6.7,-253.78
C-5.55,-255.57,-4.17,-257.62,-2.91,-259.4
C-1.65,-261.19,-0.14,-263.24,1.24,-265.02
C2.61,-266.81,4.25,-268.84,5.74,-270.62
C7.23,-272.39,9,-274.41,10.6,-276.17
C12.21,-277.93,14.1,-279.93,15.82,-281.67
C17.54,-283.4,19.57,-285.38,21.41,-287.09
C23.24,-288.8,25.4,-290.74,27.35,-292.42
C29.3,-294.09,31.6,-295.99,33.66,-297.63
C35.73,-299.27,38.15,-301.12,40.33,-302.72
C42.5,-304.32,45.06,-306.11,47.35,-307.66
C49.64,-309.21,52.32,-310.94,54.72,-312.44
C57.13,-313.93,59.93,-315.6,62.45,-317.03
C64.96,-318.46,67.89,-320.06,70.52,-321.42
C73.14,-322.79,76.19,-324.31,78.92,-325.6
C81.65,-326.89,84.83,-328.32,87.66,-329.54
C90.5,-330.75,93.79,-332.1,96.73,-333.23
C99.66,-334.36,103.08,-335.6,106.11,-336.65
C109.15,-337.69,112.67,-338.83,115.8,-339.78
C118.94,-340.73,122.57,-341.76,125.79,-342.61
C129.02,-343.46,132.76,-344.38,136.07,-345.13
C139.39,-345.88,143.23,-346.67,146.63,-347.31
C150.03,-347.95,153.97,-348.62,157.46,-349.14
C160.94,-349.67,164.97,-350.2,168.53,-350.61
C172.1,-351.02,176.21,-351.42,179.85,-351.7
C183.49,-351.99,187.69,-352.24,191.4,-352.4
C195.11,-352.56,199.39,-352.67,203.16,-352.7
C206.94,-352.72,211.28,-352.68,215.12,-352.57
C218.96,-352.46,223.37,-352.26,227.26,-352.02
C231.15,-351.77,235.63,-351.41,239.57,-351.02
C243.51,-350.64,248.04,-350.11,252.03,-349.58
C256.02,-349.04,260.59,-348.35,264.62,-347.67
C268.64,-346.98,273.26,-346.12,277.32,-345.28
C281.38,-344.45,286.04,-343.41,290.13,-342.42
C294.22,-341.43,298.9,-340.21,303.01,-339.06
C307.12,-337.92,311.82,-336.52,315.95,-335.21
C320.07,-333.91,324.79,-332.32,328.93,-330.86
C333.06,-329.39,337.79,-327.62,341.93,-325.99
C346.06,-324.36,350.79,-322.4,354.93,-320.61
C359.06,-318.81,363.78,-316.67,367.9,-314.71
C372.03,-312.75,376.73,-310.41,380.84,-308.28
C384.95,-306.16,389.63,-303.63,393.71,-301.33
C397.8,-299.04,402.45,-296.32,406.5,-293.85
C410.56,-291.39,415.17,-288.48,419.19,-285.85
C423.2,-283.21,427.77,-280.11,431.74,-277.31
C435.72,-274.51,440.23,-271.21,444.15,-268.24
C448.07,-265.27,452.52,-261.79,456.39,-258.65
C460.25,-255.51,464.63,-251.83,468.43,-248.53
C472.23,-245.23,476.54,-241.36,480.26,-237.89
C483.99,-234.42,488.21,-230.36,491.86,-226.73
C495.51,-223.1,499.64,-218.86,503.2,-215.06
C506.76,-211.27,510.79,-206.84,514.26,-202.88
C517.73,-198.93,521.64,-194.32,525.02,-190.21
C528.39,-186.1,532.19,-181.31,535.46,-177.04
C538.72,-172.77,542.4,-167.81,545.55,-163.39
C548.71,-158.97,552.25,-153.83,555.28,-149.26
C558.32,-144.69,561.72,-139.39,564.63,-134.67
C567.54,-129.96,570.8,-124.49,573.57,-119.63
C576.35,-114.78,579.45,-109.15,582.09,-104.15
C584.74,-99.15,587.67,-93.37,590.17,-88.24
C592.67,-83.11,595.44,-77.18,597.78,-71.92
C600.13,-66.66,602.73,-60.58,604.92,-55.19
C607.11,-49.81,609.52,-43.59,611.55,-38.08
C613.58,-32.58,615.81,-26.23,617.67,-20.61
C619.53,-14.99,621.56,-8.51,623.25,-2.78
C624.94,2.95,626.77,9.55,628.28,15.38
C629.8,21.21,631.42,27.93,632.75,33.86
C634.08,39.79,635.5,46.62,636.64,52.64
C637.78,58.66,638.98,65.58,639.93,71.69
C640.88,77.8,641.85,84.82,642.61,91
C643.36,97.18,644.11,104.29,644.67,110.55
C645.22,116.8,645.74,123.99,646.09,130.31
C646.44,136.63,646.72,143.89,646.86,150.27
C647,156.65,647.05,163.96,646.98,170.39
C646.91,176.82,646.71,184.2,646.43,190.67
C646.15,197.14,645.7,204.56,645.2,211.07
C644.7,217.58,644.01,225.03,643.29,231.57
C642.57,238.11,641.63,245.59,640.69,252.15
C639.75,258.7,638.55,266.2,637.38,272.78
C636.22,279.35,634.76,286.86,633.38,293.43
C631.99,300.01,630.27,307.52,628.66,314.09
C627.04,320.66,625.07,328.16,623.23,334.72
C621.38,341.28,619.15,348.77,617.08,355.31
C615.01,361.85,612.51,369.3,610.21,375.82
C607.91,382.33,605.16,389.75,602.63,396.22
C600.1,402.7,597.08,410.07,594.33,416.5
C591.57,422.93,588.29,430.25,585.3,436.63
C582.32,443.01,578.78,450.26,575.57,456.57
C572.36,462.89,568.56,470.06,565.12,476.31
C561.68,482.56,557.62,489.65,553.96,495.82
C550.3,501.98,545.99,508.98,542.1,515.06
C538.21,521.14,533.65,528.03,529.54,534.02
C525.43,540,520.62,546.78,516.29,552.66
C511.97,558.55,506.9,565.2,502.36,570.97
C497.82,576.74,492.51,583.27,487.76,588.92
C483,594.57,477.45,600.95,472.49,606.48
C467.52,612,461.74,618.23,456.57,623.62
C451.4,629.01,445.38,635.08,440.01,640.32
C434.64,645.57,428.39,651.47,422.82,656.57
C417.25,661.66,410.78,667.39,405.02,672.32
C399.25,677.26,392.56,682.8,386.61,687.57
C380.66,692.33,373.76,697.68,367.63,702.28
C361.5,706.87,354.39,712.02,348.08,716.43
C341.77,720.84,334.46,725.78,327.98,730.01
C321.49,734.24,313.99,738.95,307.34,742.99
C300.69,747.02,293.01,751.51,286.2,755.34
C279.39,759.18,271.52,763.44,264.56,767.06
C257.6,770.69,249.56,774.71,242.45,778.12
C235.34,781.53,227.14,785.3,219.9,788.5
C212.65,791.69,204.29,795.21,196.91,798.18
C189.53,801.15,181.02,804.41,173.52,807.15
C166.01,809.89,157.37,812.88,149.75,815.39
C142.12,817.89,133.35,820.62,125.62,822.88
C117.88,825.15,108.99,827.59,101.16,829.62
C93.32,831.63,84.32,833.8,76.39,835.57
C68.46,837.34,59.35,839.22,51.34,840.74
C43.33,842.26,34.13,843.85,26.04,845.12
C17.95,846.38,8.67,847.67,0.51,848.68
C-7.65,849.68,-17,850.68,-25.22,851.42
C-33.44,852.16,-42.85,852.85,-51.12,853.33
C-59.39,853.8,-68.85,854.19,-77.16,854.4
C-85.47,854.61,-94.98,854.69,-103.32,854.63
C-111.66,854.57,-121.2,854.34,-129.56,854.01
C-137.93,853.67,-147.49,853.13,-155.86,852.53
C-164.24,851.92,-173.81,851.07,-182.19,850.19
C-190.57,849.3,-200.14,848.14,-208.52,846.98
C-216.89,845.82,-226.45,844.35,-234.8,842.91
C-243.16,841.48,-252.7,839.69,-261.03,837.98
C-269.37,836.27,-278.87,834.16,-287.17,832.18
C-295.47,830.19,-304.93,827.77,-313.18,825.51
C-321.44,823.25,-330.84,820.52,-339.04,817.98
C-347.24,815.45,-356.58,812.4,-364.72,809.6
C-372.86,806.79,-382.11,803.44,-390.18,800.36
C-398.25,797.28,-407.42,793.62,-415.4,790.27
C-423.39,786.93,-432.46,782.95,-440.35,779.34
C-448.24,775.73,-457.2,771.45,-465,767.58
C-472.79,763.7,-481.63,759.13,-489.31,754.99
C-496.99,750.85,-505.7,745.98,-513.27,741.59
C-520.83,737.19,-529.4,732.03,-536.83,727.38
C-544.27,722.73,-552.68,717.28,-559.98,712.38
C-567.28,707.48,-575.53,701.75,-582.69,696.6
C-589.84,691.46,-597.92,685.45,-604.92,680.06
C-611.92,674.68,-619.82,668.39,-626.65,662.77
C-633.48,657.15,-641.2,650.6,-647.86,644.75
C-654.52,638.9,-662.03,632.09,-668.52,626.01
C-675,619.93,-682.3,612.87,-688.59,606.57
C-694.89,600.28,-701.97,592.96,-708.07,586.46
C-714.17,579.95,-721.03,572.39,-726.92,565.68
C-732.82,558.96,-739.44,551.18,-745.13,544.26
C-750.82,537.35,-757.19,529.34,-762.66,522.23
C-768.13,515.12,-774.26,506.9,-779.5,499.6
C-784.75,492.31,-790.61,483.88,-795.63,476.4
C-800.65,468.93,-806.24,460.3,-811.02,452.66
C-815.8,445.01,-821.12,436.19,-825.66,428.39
C-830.2,420.58,-835.24,411.58,-839.53,403.62
C-843.82,395.66,-848.57,386.48,-852.6,378.38
C-856.64,370.28,-861.1,360.94,-864.88,352.7
C-868.65,344.45,-872.81,334.96,-876.32,326.59
C-879.83,318.22,-883.69,308.59,-886.94,300.1
C-890.18,291.61,-893.73,281.85,-896.7,273.25
C-899.67,264.65,-902.9,254.76,-905.6,246.06
C-908.29,237.36,-911.2,227.36,-913.62,218.57
C-916.03,209.78,-918.63,199.68,-920.76,190.81
C-922.88,181.93,-925.16,171.75,-927,162.8
C-928.84,153.85,-930.78,143.6,-932.34,134.58
C-933.89,125.57,-935.5,115.25,-936.76,106.18
C-938.03,97.12,-939.3,86.74,-940.27,77.63
C-941.24,68.52,-942.18,58.1,-942.86,48.96
C-943.53,39.82,-944.14,29.36,-944.52,20.2
C-944.9,11.03,-945.16,0.56,-945.25,-8.62
C-945.33,-17.8,-945.26,-28.28,-945.04,-37.46
C-944.83,-46.64,-944.42,-57.12,-943.91,-66.29
C-943.4,-75.47,-942.65,-85.94,-941.84,-95.09
C-941.03,-104.25,-939.94,-114.69,-938.84,-123.82
C-937.74,-132.94,-936.31,-143.35,-934.91,-152.44
C-933.52,-161.53,-931.75,-171.89,-930.06,-180.93
C-928.37,-189.97,-926.27,-200.27,-924.29,-209.25
C-922.31,-218.24,-919.88,-228.46,-917.6,-237.38
C-915.33,-246.3,-912.57,-256.44,-910.01,-265.28
C-907.45,-274.12,-904.37,-284.17,-901.52,-292.92
C-898.68,-301.68,-895.27,-311.62,-892.14,-320.28
C-889.02,-328.93,-885.29,-338.76,-881.89,-347.31
C-878.48,-355.86,-874.44,-365.56,-870.76,-373.99
C-867.08,-382.43,-862.73,-391.99,-858.78,-400.3
C-854.84,-408.61,-850.18,-418.03,-845.96,-426.2
C-841.75,-434.38,-836.79,-443.64,-832.32,-451.67
C-827.84,-459.7,-822.59,-468.79,-817.86,-476.67
C-813.13,-484.55,-807.58,-493.46,-802.6,-501.18
C-797.63,-508.9,-791.8,-517.62,-786.58,-525.18
C-781.35,-532.73,-775.25,-541.25,-769.79,-548.63
C-764.32,-556,-757.95,-564.32,-752.26,-571.51
C-746.56,-578.7,-739.93,-586.81,-734.01,-593.81
C-728.09,-600.8,-721.2,-608.68,-715.07,-615.48
C-708.93,-622.28,-701.8,-629.93,-695.44,-636.52
C-689.1,-643.11,-681.72,-650.52,-675.17,-656.89
C-668.62,-663.27,-661.02,-670.43,-654.26,-676.59
C-647.51,-682.74,-639.69,-689.64,-632.75,-695.57
C-625.81,-701.5,-617.78,-708.14,-610.66,-713.84
C-603.54,-719.54,-595.3,-725.91,-588.01,-731.36
C-580.72,-736.82,-572.29,-742.92,-564.83,-748.13
C-557.37,-753.34,-548.76,-759.15,-541.15,-764.12
C-533.54,-769.08,-524.76,-774.6,-516.99,-779.31
C-509.23,-784.02,-500.29,-789.25,-492.39,-793.7
C-484.49,-798.15,-475.39,-803.08,-467.36,-807.26
C-459.34,-811.45,-450.1,-816.08,-441.95,-820
C-433.8,-823.91,-424.43,-828.24,-416.17,-831.88
C-407.92,-835.53,-398.42,-839.54,-390.06,-842.91
C-381.71,-846.29,-372.1,-849.98,-363.66,-853.08
C-355.2,-856.17,-345.5,-859.55,-336.97,-862.37
C-328.44,-865.18,-318.65,-868.24,-310.05,-870.78
C-301.44,-873.31,-291.58,-876.04,-282.91,-878.29
C-274.25,-880.54,-264.32,-882.95,-255.6,-884.92
C-246.88,-886.88,-236.89,-888.97,-228.13,-890.65
C-219.37,-892.33,-209.34,-894.08,-200.55,-895.47
C-191.76,-896.86,-181.7,-898.29,-172.88,-899.4
C-164.06,-900.5,-153.98,-901.6,-145.15,-902.42
C-136.32,-903.23,-126.24,-904,-117.4,-904.53
C-108.57,-905.06,-98.48,-905.5,-89.66,-905.74
C-80.83,-905.99,-70.76,-906.1,-61.95,-906.06
C-53.14,-906.02,-43.09,-905.8,-34.31,-905.48
C-25.52,-905.15,-15.51,-904.62,-6.76,-904
C1.98,-903.4,11.95,-902.54,20.65,-901.65
C29.35,-900.76,39.26,-899.58,47.91,-898.41
C56.56,-897.24,66.4,-895.75,74.98,-894.3
C83.56,-892.86,93.33,-891.05,101.84,-889.33
C110.34,-887.61,120.02,-885.5,128.44,-883.51
C136.87,-881.52,146.44,-879.1,154.78,-876.85
C163.11,-874.59,172.57,-871.87,180.81,-869.36
C189.04,-866.84,198.38,-863.82,206.51,-861.05
C214.63,-858.28,223.85,-854.96,231.86,-851.94
C239.86,-848.91,248.94,-845.31,256.82,-842.04
C264.7,-838.77,273.62,-834.89,281.37,-831.37
C289.12,-827.85,297.88,-823.7,305.49,-819.95
C313.1,-816.19,321.7,-811.77,329.15,-807.78
C336.61,-803.8,345.03,-799.12,352.33,-794.9
C359.63,-790.69,367.87,-785.75,375,-781.32
C382.14,-776.89,390.19,-771.71,397.15,-767.06
C404.11,-762.42,411.97,-756.99,418.75,-752.14
C425.53,-747.29,433.18,-741.63,439.78,-736.58
C446.38,-731.53,453.81,-725.65,460.22,-720.4
C466.63,-715.16,473.84,-709.06,480.05,-703.64
C486.26,-698.21,493.24,-691.9,499.25,-686.3
C505.26,-680.69,512.01,-674.18,517.81,-668.41
C523.62,-662.63,530.12,-655.94,535.71,-650
C541.3,-644.06,547.56,-637.18,552.94,-631.09
C558.31,-625,564.32,-617.95,569.47,-611.71
C574.62,-605.47,580.38,-598.27,585.3,-591.89
C590.23,-585.51,595.72,-578.15,600.42,-571.64
C605.12,-565.14,610.35,-557.63,614.81,-551.01
C619.27,-544.38,624.24,-536.74,628.46,-530
C632.69,-523.26,637.38,-515.5,641.37,-508.66
C645.35,-501.81,649.77,-493.94,653.52,-487
C657.26,-480.06,661.4,-472.08,664.9,-465.06
C668.4,-458.04,672.26,-449.96,675.52,-442.86
C678.78,-435.76,682.35,-427.61,685.36,-420.44
C688.37,-413.27,691.66,-405.04,694.43,-397.81
C697.19,-390.58,700.2,-382.29,702.71,-375.01
C705.22,-367.73,707.94,-359.39,710.21,-352.07
C712.47,-344.74,714.91,-336.36,716.92,-329.01
C718.93,-321.65,721.08,-313.24,722.84,-305.86
C724.61,-298.48,726.47,-290.04,727.99,-282.65
C729.5,-275.25,731.08,-266.8,732.35,-259.4
C733.61,-252,734.91,-243.55,735.92,-236.16
C736.94,-228.76,737.96,-220.31,738.73,-212.93
C739.5,-205.54,740.24,-197.12,740.76,-189.75
C741.29,-182.38,741.75,-173.98,742.03,-166.65
C742.31,-159.31,742.5,-150.95,742.54,-143.65
C742.58,-136.34,742.49,-128.03,742.3,-120.77
C742.1,-113.52,741.74,-105.26,741.31,-98.05
C740.88,-90.85,740.26,-82.65,739.6,-75.51
C738.94,-68.37,738.05,-60.25,737.16,-53.17
C736.27,-46.1,735.12,-38.06,734.01,-31.06
C732.9,-24.07,731.5,-16.12,730.17,-9.21
C728.83,-2.29,727.18,5.55,725.64,12.38
C724.08,19.2,722.19,26.94,720.43,33.66
C718.67,40.39,716.54,48.01,714.57,54.63
C712.61,61.25,710.24,68.75,708.07,75.26
C705.9,81.77,703.31,89.14,700.95,95.53
C698.58,101.92,695.77,109.14,693.21,115.41
C690.66,121.68,687.63,128.76,684.89,134.9
C682.15,141.03,678.91,147.96,675.99,153.96
C673.07,159.96,669.63,166.74,666.54,172.6
C663.44,178.45,659.81,185.06,656.55,190.77
C653.29,196.49,649.47,202.92,646.04,208.48
C642.62,214.04,638.62,220.3,635.05,225.71
C631.47,231.11,627.3,237.19,623.57,242.44
C619.85,247.68,615.51,253.57,611.65,258.65
C607.78,263.73,603.29,269.43,599.29,274.34
C595.29,279.25,590.65,284.75,586.52,289.49
C582.4,294.23,577.62,299.54,573.37,304.1
C569.12,308.66,564.21,313.76,559.85,318.14
C555.49,322.52,550.45,327.42,545.99,331.62
C541.53,335.82,536.37,340.51,531.81,344.53
C527.25,348.54,521.99,353.02,517.34,356.85
C512.68,360.68,507.32,364.95,502.59,368.59
C497.85,372.23,492.4,376.28,487.59,379.73
C482.78,383.18,477.25,387.01,472.37,390.27
C467.49,393.53,461.88,397.14,456.95,400.21
C452.01,403.28,446.34,406.68,441.35,409.55
C436.36,412.43,430.63,415.6,425.59,418.28
C420.56,420.96,414.78,423.92,409.71,426.41
C404.63,428.9,398.82,431.63,393.71,433.92
C388.61,436.22,382.76,438.73,377.64,440.84
C372.51,442.94,366.64,445.23,361.5,447.14
C356.36,449.06,350.47,451.13,345.32,452.85
C340.17,454.57,334.28,456.43,329.13,457.96
C323.98,459.5,318.09,461.14,312.95,462.48
C307.8,463.82,301.92,465.25,296.79,466.41
C291.66,467.57,285.8,468.79,280.69,469.76
C275.57,470.74,269.74,471.74,264.65,472.54
C259.56,473.33,253.77,474.14,248.71,474.75
C243.66,475.36,237.9,475.96,232.89,476.4
C227.87,476.84,222.17,477.24,217.2,477.51
C212.22,477.78,206.58,477.98,201.66,478.08
C196.74,478.18,191.15,478.19,186.29,478.12
C181.43,478.05,175.91,477.88,171.11,477.65
C166.31,477.42,160.87,477.06,156.14,476.67
C151.42,476.28,146.06,475.74,141.4,475.2
C136.75,474.66,131.48,473.95,126.9,473.26
C122.33,472.57,117.15,471.69,112.66,470.85
C108.17,470.02,103.09,468.98,98.69,468
C94.29,467.02,89.32,465.82,85.01,464.71
C80.71,463.6,75.84,462.25,71.64,461.01
C67.43,459.76,62.68,458.27,58.58,456.9
C54.47,455.54,49.84,453.9,45.84,452.41
C41.84,450.92,37.34,449.16,33.45,447.56
C29.56,445.95,25.18,444.06,21.41,442.35
C17.63,440.64,13.39,438.62,9.73,436.81
C6.07,434.99,1.96,432.86,-1.58,430.95
C-5.12,429.04,-9.09,426.8,-12.51,424.8
C-15.93,422.8,-19.76,420.46,-23.05,418.37
C-26.35,416.28,-30.03,413.85,-33.2,411.68
C-36.37,409.51,-39.91,406.99,-42.95,404.75
C-45.99,402.51,-49.38,399.91,-52.29,397.6
C-55.2,395.29,-58.44,392.62,-61.22,390.25
C-64,387.88,-67.09,385.14,-69.74,382.71
C-72.38,380.29,-75.33,377.48,-77.84,375.01
C-80.35,372.54,-83.14,369.68,-85.52,367.17
C-87.89,364.65,-90.53,361.75,-92.78,359.2
C-95.02,356.64,-97.5,353.7,-99.61,351.12
C-101.72,348.54,-104.06,345.56,-106.03,342.96
C-108.01,340.35,-110.19,337.35,-112.03,334.72
C-113.87,332.1,-115.9,329.08,-117.61,326.44
C-119.32,323.8,-121.2,320.78,-122.78,318.13
C-124.36,315.48,-126.08,312.45,-127.53,309.8
C-128.98,307.16,-130.56,304.13,-131.88,301.48
C-133.2,298.84,-134.63,295.82,-135.82,293.19
C-137.02,290.55,-138.3,287.55,-139.37,284.93
C-140.44,282.31,-141.59,279.33,-142.53,276.73
C-143.48,274.13,-144.48,271.18,-145.31,268.61
C-146.13,266.04,-147,263.12,-147.71,260.57
C-148.42,258.03,-149.16,255.15,-149.75,252.65
C-150.34,250.14,-150.95,247.3,-151.43,244.84
C-151.9,242.38,-152.39,239.59,-152.76,237.17
C-153.13,234.76,-153.49,232.02,-153.75,229.66
C-154.02,227.29,-154.26,224.62,-154.42,222.31
C-154.58,219.99,-154.71,217.39,-154.78,215.13
C-154.84,212.88,-154.86,210.34,-154.83,208.15
C-154.8,205.96,-154.71,203.5,-154.59,201.37
C-154.47,199.25,-154.28,196.86,-154.08,194.81
C-153.87,192.76,-153.59,190.45,-153.3,188.47
C-153.02,186.49,-152.64,184.27,-152.28,182.37
C-151.91,180.47,-151.45,178.34,-151.02,176.52
C-150.58,174.69,-150.04,172.66,-149.54,170.92
C-149.03,169.17,-148.42,167.23,-147.85,165.58
C-147.28,163.92,-146.6,162.08,-145.98,160.51
C-145.35,158.94,-144.6,157.2,-143.92,155.72
C-143.25,154.24,-142.44,152.6,-141.72,151.21
C-140.99,149.82,-140.14,148.29,-139.37,146.99
C-138.6,145.69,-137.7,144.26,-136.89,143.06
C-136.08,141.86,-135.14,140.54,-134.3,139.43
C-133.46,138.32,-132.49,137.11,-131.62,136.1
C-130.76,135.09,-129.75,133.99,-128.87,133.07
C-127.98,132.15,-126.95,131.16,-126.05,130.34
C-125.15,129.52,-124.1,128.64,-123.19,127.92
C-122.27,127.2,-121.22,126.43,-120.3,125.8
C-119.38,125.18,-118.32,124.52,-117.4,123.99
C-116.48,123.46,-115.43,122.91,-114.51,122.47
C-113.59,122.04,-112.55,121.6,-111.64,121.26
C-110.73,120.92,-109.7,120.58,-108.81,120.34
C-107.91,120.09,-106.9,119.86,-106.03,119.71
C-105.16,119.56,-104.17,119.44,-103.32,119.37
C-102.47,119.31,-101.52,119.29,-100.7,119.32
C-99.88,119.34,-98.96,119.42,-98.18,119.54
C-97.39,119.65,-96.52,119.83,-95.77,120.02
C-95.03,120.22,-94.2,120.5,-93.5,120.78
C-92.79,121.06,-92.02,121.42,-91.36,121.78
C-90.71,122.14,-89.99,122.6,-89.39,123.04
C-88.79,123.47,-88.13,124.02,-87.59,124.53
C-87.05,125.04,-86.46,125.66,-85.97,126.24
C-85.49,126.82,-84.97,127.53,-84.56,128.17
C-84.14,128.82,-83.7,129.6,-83.35,130.31
C-83,131.02,-82.64,131.87,-82.36,132.64
C-82.08,133.41,-81.8,134.33,-81.6,135.15
C-81.4,135.98,-81.21,136.95,-81.09,137.83
C-80.96,138.71,-80.87,139.74,-80.82,140.67
C-80.78,141.59,-80.78,142.68,-80.82,143.65
C-80.87,144.61,-80.96,145.74,-81.09,146.75
C-81.22,147.76,-81.42,148.93,-81.64,149.97
C-81.86,151.01,-82.16,152.22,-82.47,153.29
C-82.78,154.36,-83.19,155.6,-83.59,156.69
C-84,157.78,-84.51,159.05,-85.01,160.16
C-85.51,161.27,-86.14,162.55,-86.74,163.68
C-87.33,164.81,-88.07,166.1,-88.76,167.24
C-89.46,168.37,-90.31,169.68,-91.1,170.82
C-91.9,171.96,-92.86,173.26,-93.76,174.4
C-94.65,175.54,-95.73,176.84,-96.73,177.97
C-97.72,179.1,-98.92,180.39,-100.02,181.51
C-101.11,182.63,-102.42,183.9,-103.62,185
C-104.82,186.1,-106.24,187.35,-107.54,188.43
C-108.84,189.51,-110.38,190.73,-111.78,191.78
C-113.18,192.83,-114.84,194.02,-116.34,195.03
C-117.84,196.05,-119.61,197.19,-121.21,198.17
C-122.81,199.15,-124.69,200.25,-126.39,201.18
C-128.09,202.11,-130.08,203.16,-131.88,204.04
C-133.67,204.92,-135.77,205.91,-137.66,206.74
C-139.55,207.57,-141.76,208.48,-143.75,209.25
C-145.73,210.02,-148.04,210.87,-150.12,211.57
C-152.19,212.28,-154.61,213.05,-156.78,213.68
C-158.94,214.32,-161.46,215,-163.71,215.56
C-165.96,216.12,-168.57,216.72,-170.9,217.2
C-173.24,217.67,-175.95,218.18,-178.36,218.57
C-180.77,218.97,-183.58,219.37,-186.07,219.68
C-188.56,219.98,-191.44,220.28,-194.01,220.49
C-196.57,220.7,-199.54,220.89,-202.18,221
C-204.81,221.12,-207.86,221.19,-210.56,221.2
C-213.26,221.21,-216.38,221.17,-219.14,221.07
C-221.91,220.98,-225.1,220.81,-227.92,220.6
C-230.74,220.39,-233.99,220.1,-236.87,219.78
C-239.74,219.46,-243.05,219.03,-245.98,218.59
C-248.9,218.15,-252.26,217.58,-255.23,217.02
C-258.2,216.47,-261.61,215.76,-264.62,215.08
C-267.62,214.39,-271.08,213.54,-274.12,212.73
C-277.16,211.92,-280.65,210.92,-283.72,209.98
C-286.79,209.04,-290.31,207.9,-293.4,206.82
C-296.5,205.75,-300.04,204.45,-303.15,203.24
C-306.26,202.03,-309.82,200.58,-312.95,199.23
C-316.07,197.89,-319.64,196.28,-322.77,194.79
C-325.9,193.31,-329.48,191.54,-332.6,189.91
C-335.73,188.29,-339.31,186.35,-342.43,184.59
C-345.55,182.82,-349.12,180.73,-352.23,178.82
C-355.34,176.91,-358.89,174.65,-361.98,172.6
C-365.08,170.54,-368.6,168.12,-371.67,165.92
C-374.74,163.72,-378.23,161.13,-381.27,158.79
C-384.31,156.45,-387.77,153.69,-390.77,151.21
C-393.77,148.72,-397.18,145.8,-400.14,143.17
C-403.1,140.54,-406.46,137.45,-409.37,134.67
C-412.28,131.9,-415.58,128.65,-418.43,125.73
C-421.29,122.81,-424.52,119.39,-427.31,116.33
C-430.11,113.27,-433.26,109.69,-435.99,106.49
C-438.71,103.29,-441.79,99.55,-444.44,96.2
C-447.09,92.86,-450.07,88.96,-452.64,85.48
C-455.21,82,-458.1,77.95,-460.58,74.33
C-463.06,70.71,-465.85,66.5,-468.24,62.75
C-470.63,59,-473.3,54.64,-475.59,50.76
C-477.88,46.88,-480.44,42.37,-482.62,38.36
C-484.8,34.34,-487.24,29.69,-489.31,25.55
C-491.38,21.42,-493.68,16.62,-495.64,12.36
C-497.59,8.11,-499.76,3.17,-501.59,-1.2
C-503.42,-5.58,-505.44,-10.64,-507.14,-15.14
C-508.85,-19.63,-510.72,-24.82,-512.28,-29.42
C-513.85,-34.03,-515.57,-39.34,-516.99,-44.05
C-518.42,-48.76,-519.97,-54.2,-521.26,-59.01
C-522.54,-63.82,-523.92,-69.37,-525.05,-74.27
C-526.18,-79.18,-527.39,-84.84,-528.37,-89.84
C-529.35,-94.83,-530.38,-100.59,-531.19,-105.68
C-532.01,-110.76,-532.85,-116.62,-533.51,-121.78
C-534.16,-126.95,-534.81,-132.9,-535.3,-138.14
C-535.78,-143.38,-536.24,-149.4,-536.55,-154.72
C-536.86,-160.03,-537.12,-166.13,-537.26,-171.5
C-537.39,-176.88,-537.44,-183.05,-537.4,-188.48
C-537.35,-193.91,-537.2,-200.15,-536.97,-205.63
C-536.74,-211.11,-536.37,-217.4,-535.96,-222.93
C-535.54,-228.45,-534.96,-234.79,-534.35,-240.35
C-533.74,-245.92,-532.94,-252.29,-532.14,-257.89
C-531.34,-263.48,-530.32,-269.89,-529.32,-275.5
C-528.33,-281.12,-527.08,-287.55,-525.89,-293.19
C-524.7,-298.82,-523.22,-305.27,-521.83,-310.91
C-520.44,-316.55,-518.74,-323,-517.14,-328.65
C-515.55,-334.3,-513.61,-340.74,-511.82,-346.38
C-510.02,-352.02,-507.86,-358.46,-505.86,-364.09
C-503.86,-369.72,-501.46,-376.14,-499.25,-381.74
C-497.05,-387.35,-494.41,-393.74,-492,-399.32
C-489.6,-404.89,-486.73,-411.25,-484.11,-416.79
C-481.5,-422.33,-478.4,-428.64,-475.58,-434.14
C-472.76,-439.64,-469.42,-445.89,-466.39,-451.34
C-463.37,-456.78,-459.8,-462.97,-456.57,-468.36
C-453.34,-473.75,-449.53,-479.86,-446.1,-485.18
C-442.67,-490.5,-438.63,-496.54,-435,-501.78
C-431.36,-507.03,-427.1,-512.98,-423.26,-518.14
C-419.43,-523.3,-414.94,-529.15,-410.9,-534.22
C-406.87,-539.29,-402.15,-545.03,-397.92,-550
C-393.69,-554.97,-388.74,-560.6,-384.32,-565.46
C-379.9,-570.33,-374.74,-575.82,-370.12,-580.58
C-365.5,-585.33,-360.12,-590.69,-355.32,-595.32
C-350.52,-599.96,-344.92,-605.18,-339.94,-609.68
C-334.95,-614.18,-329.15,-619.25,-323.98,-623.62
C-318.81,-627.99,-312.8,-632.9,-307.46,-637.12
C-302.11,-641.34,-295.9,-646.09,-290.38,-650.16
C-284.86,-654.23,-278.46,-658.8,-272.77,-662.72
C-267.08,-666.63,-260.49,-671.02,-254.64,-674.77
C-248.79,-678.52,-242.02,-682.71,-236,-686.3
C-230,-689.88,-223.04,-693.87,-216.88,-697.27
C-210.71,-700.68,-203.59,-704.46,-197.28,-707.69
C-190.97,-710.91,-183.68,-714.48,-177.22,-717.51
C-170.77,-720.54,-163.32,-723.9,-156.73,-726.73
C-150.14,-729.57,-142.54,-732.7,-135.82,-735.33
C-129.11,-737.96,-121.36,-740.86,-114.52,-743.29
C-107.68,-745.71,-99.8,-748.37,-92.84,-750.58
C-85.88,-752.8,-77.87,-755.21,-70.81,-757.21
C-63.74,-759.21,-55.61,-761.36,-48.44,-763.14
C-41.28,-764.92,-33.03,-766.82,-25.77,-768.37
C-18.51,-769.92,-10.16,-771.56,-2.82,-772.88
C4.53,-774.2,12.97,-775.58,20.4,-776.66
C27.83,-777.75,36.35,-778.85,43.85,-779.7
C51.35,-780.55,59.95,-781.38,67.52,-781.98
C75.08,-782.59,83.75,-783.14,91.36,-783.5
C98.98,-783.86,107.71,-784.13,115.37,-784.24
C123.03,-784.35,131.81,-784.34,139.51,-784.2
C147.21,-784.06,156.02,-783.76,163.75,-783.37
C171.48,-782.98,180.32,-782.39,188.07,-781.74
C195.82,-781.09,204.68,-780.21,212.44,-779.31
C220.2,-778.41,229.07,-777.23,236.83,-776.07
C244.6,-774.91,253.46,-773.44,261.22,-772.02
C268.97,-770.6,277.83,-768.84,285.57,-767.16
C293.31,-765.48,302.14,-763.42,309.86,-761.48
C317.57,-759.55,326.37,-757.19,334.05,-754.99
C341.73,-752.79,350.49,-750.14,358.12,-747.68
C365.76,-745.23,374.46,-742.28,382.05,-739.56
C389.64,-736.85,398.27,-733.6,405.8,-730.63
C413.32,-727.66,421.88,-724.12,429.34,-720.89
C436.79,-717.67,445.26,-713.84,452.64,-710.35
C460.02,-706.87,468.39,-702.75,475.68,-699.02
C482.97,-695.28,491.24,-690.88,498.43,-686.89
C505.62,-682.91,513.77,-678.22,520.85,-673.99
C527.94,-669.76,535.96,-664.78,542.93,-660.31
C549.9,-655.84,557.79,-650.59,564.63,-645.87
C571.47,-641.15,579.22,-635.63,585.93,-630.68
C592.64,-625.73,600.22,-619.94,606.79,-614.75
C613.36,-609.56,620.78,-603.51,627.2,-598.09
C633.62,-592.68,640.86,-586.36,647.12,-580.73
C653.38,-575.09,660.44,-568.52,666.54,-562.66
C672.63,-556.8,679.49,-549.99,685.41,-543.92
C691.33,-537.84,697.99,-530.79,703.73,-524.51
C709.47,-518.23,715.92,-510.94,721.47,-504.45
C727.02,-497.97,733.24,-490.45,738.59,-483.77
C743.94,-477.09,749.94,-469.35,755.09,-462.48
C760.24,-455.61,766,-447.66,770.93,-440.6
C775.87,-433.55,781.38,-425.39,786.1,-418.16
C790.82,-410.93,796.08,-402.58,800.58,-395.18
C805.07,-387.78,810.07,-379.23,814.34,-371.67
C818.6,-364.11,823.33,-355.38,827.36,-347.67
C831.39,-339.95,835.85,-331.05,839.63,-323.19
C843.42,-315.33,847.6,-306.27,851.14,-298.27
C854.67,-290.27,858.57,-281.05,861.85,-272.92
C865.13,-264.79,868.74,-255.43,871.76,-247.18
C874.79,-238.93,878.09,-229.44,880.86,-221.07
C883.62,-212.71,886.62,-203.09,889.12,-194.62
C891.62,-186.15,894.31,-176.42,896.54,-167.86
C898.76,-159.3,901.15,-149.46,903.1,-140.81
C905.05,-132.16,907.12,-122.24,908.8,-113.51
C910.47,-104.78,912.22,-94.77,913.62,-85.98
C915.01,-77.19,916.44,-67.11,917.55,-58.26
C918.66,-49.41,919.77,-39.27,920.59,-30.37
C921.42,-21.47,922.2,-11.28,922.73,-2.34
C923.27,6.6,923.72,16.82,923.97,25.79
C924.21,34.76,924.33,45.01,924.29,53.99
C924.25,62.98,924.03,73.25,923.7,82.24
C923.37,91.23,922.82,101.51,922.2,110.5
C921.57,119.49,920.69,129.76,919.77,138.74
C918.86,147.72,917.64,157.97,916.43,166.93
C915.22,175.89,913.68,186.1,912.18,195.03
C910.68,203.96,908.8,214.14,907.01,223.02
C905.22,231.91,903.01,242.04,900.93,250.87
C898.85,259.71,896.31,269.77,893.94,278.54
C891.57,287.32,888.71,297.3,886.05,306
C883.4,314.71,880.21,324.6,877.27,333.23
C874.34,341.85,870.82,351.65,867.61,360.18
C864.39,368.72,860.56,378.41,857.06,386.84
C853.57,395.27,849.42,404.84,845.65,413.16
C841.88,421.49,837.42,430.93,833.38,439.13
C829.34,447.34,824.58,456.64,820.27,464.71
C815.96,472.79,810.9,481.94,806.33,489.87
C801.76,497.81,796.39,506.8,791.56,514.59
C786.74,522.38,781.08,531.2,776,538.83
C770.92,546.47,764.98,555.1,759.66,562.58
C754.33,570.05,748.11,578.49,742.54,585.79
C736.97,593.09,730.47,601.33,724.67,608.45
C718.87,615.57,712.1,623.6,706.07,630.53
C700.04,637.46,693.02,645.27,686.76,652.01
C680.5,658.74,673.23,666.32,666.76,672.86
C660.29,679.39,652.77,686.73,646.09,693.05
C639.4,699.37,631.66,706.47,624.77,712.57
C617.88,718.68,609.91,725.52,602.83,731.4
C595.75,737.28,587.56,743.86,580.29,749.51
C573.02,755.16,564.62,761.47,557.17,766.88
C549.73,772.29,541.12,778.33,533.51,783.5
C525.89,788.66,517.1,794.42,509.32,799.34
C501.54,804.26,492.56,809.73,484.63,814.39
C476.7,819.05,467.56,824.23,459.48,828.63
C451.4,833.03,442.1,837.91,433.88,842.05
C425.67,846.19,416.21,850.76,407.88,854.63
C399.53,858.5,389.94,862.76,381.48,866.36
C373.02,869.95,363.3,873.9,354.73,877.22
C346.17,880.54,336.33,884.18,327.66,887.21
C319,890.25,309.05,893.56,300.29,896.32
C291.54,899.08,281.5,902.06,272.66,904.53
C263.83,907,253.7,909.66,244.8,911.84
C235.9,914.02,225.69,916.35,216.73,918.24
C207.77,920.13,197.5,922.13,188.49,923.73
C179.48,925.33,169.16,926.99,160.11,928.29
C151.06,929.6,140.7,930.92,131.62,931.94
C122.54,932.95,112.16,933.94,103.06,934.65
C93.96,935.37,83.56,936.02,74.45,936.44
C65.34,936.87,54.93,937.18,45.83,937.31
C36.72,937.44,26.32,937.41,17.22,937.25
C8.12,937.08,-2.26,936.72,-11.33,936.26
C-20.41,935.8,-30.76,935.11,-39.81,934.36
C-48.86,933.6,-59.17,932.58,-68.17,931.53
C-77.18,930.49,-87.44,929.13,-96.39,927.8
C-105.35,926.47,-115.54,924.78,-124.44,923.16
C-133.33,921.54,-143.45,919.53,-152.28,917.63
C-161.1,915.72,-171.14,913.39,-179.88,911.21
C-188.63,909.02,-198.57,906.37,-207.22,903.9
C-215.88,901.44,-225.71,898.47,-234.27,895.74
C-242.83,893,-252.54,889.72,-260.99,886.71
C-269.44,883.71,-279.03,880.12,-287.37,876.85
C-295.7,873.57,-305.15,869.68,-313.36,866.15
C-321.57,862.62,-330.87,858.43,-338.94,854.64
C-347.02,850.85,-356.16,846.38,-364.1,842.33
C-372.03,838.29,-381.01,833.53,-388.79,829.24
C-396.57,824.95,-405.37,819.92,-412.99,815.39
C-420.62,810.86,-429.23,805.55,-436.69,800.79
C-444.15,796.03,-452.57,790.45,-459.85,785.46
C-467.13,780.47,-475.35,774.64,-482.45,769.43
C-489.55,764.22,-497.56,758.14,-504.47,752.71
C-511.38,747.28,-519.17,740.96,-525.89,735.33
C-532.61,729.7,-540.17,723.14,-546.68,717.31
C-553.2,711.47,-560.52,704.7,-566.83,698.67
C-573.14,692.64,-580.22,685.64,-586.32,679.43
C-592.41,673.22,-599.25,666.02,-605.12,659.63
C-611,653.24,-617.58,645.84,-623.23,639.28
C-628.88,632.72,-635.2,625.13,-640.61,618.41
C-646.03,611.69,-652.09,603.92,-657.27,597.05
C-662.45,590.17,-668.24,582.24,-673.18,575.22
C-678.12,568.2,-683.63,560.1,-688.33,552.95
C-693.03,545.8,-698.26,537.55,-702.71,530.27
C-707.16,522.99,-712.1,514.6,-716.3,507.21
C-720.5,499.81,-725.15,491.29,-729.1,483.79
C-733.04,476.28,-737.4,467.65,-741.09,460.04
C-744.78,452.44,-748.85,443.69,-752.28,436
C-755.7,428.3,-759.47,419.46,-762.64,411.68
C-765.8,403.9,-769.27,394.98,-772.17,387.12
C-775.07,379.28,-778.24,370.27,-780.87,362.36
C-783.51,354.45,-786.37,345.38,-788.74,337.41
C-791.11,329.44,-793.66,320.32,-795.77,312.31
C-797.87,304.3,-800.12,295.13,-801.95,287.09
C-803.79,279.04,-805.73,269.84,-807.3,261.77
C-808.86,253.7,-810.5,244.48,-811.8,236.39
C-813.1,228.31,-814.43,219.07,-815.46,210.98
C-816.49,202.88,-817.52,193.64,-818.28,185.56
C-819.05,177.47,-819.77,168.23,-820.27,160.16
C-820.77,152.08,-821.19,142.87,-821.42,134.81
C-821.66,126.76,-821.78,117.58,-821.76,109.55
C-821.73,101.53,-821.55,92.38,-821.26,84.4
C-820.98,76.41,-820.51,67.32,-819.96,59.38
C-819.42,51.44,-818.65,42.41,-817.86,34.53
C-817.06,26.65,-816,17.68,-814.96,9.86
C-813.91,2.05,-812.57,-6.84,-811.27,-14.58
C-809.98,-22.32,-808.36,-31.12,-806.82,-38.78
C-805.28,-46.44,-803.38,-55.14,-801.6,-62.7
C-799.82,-70.27,-797.65,-78.87,-795.63,-86.34
C-793.61,-93.81,-791.18,-102.28,-788.93,-109.65
C-786.68,-117.02,-783.98,-125.37,-781.51,-132.62
C-779.03,-139.87,-776.08,-148.09,-773.38,-155.22
C-770.69,-162.35,-767.48,-170.43,-764.57,-177.43
C-761.66,-184.44,-758.21,-192.36,-755.09,-199.23
C-751.97,-206.1,-748.28,-213.87,-744.95,-220.6
C-741.63,-227.33,-737.71,-234.93,-734.18,-241.51
C-730.66,-248.09,-726.52,-255.52,-722.8,-261.95
C-719.08,-268.38,-714.72,-275.63,-710.82,-281.9
C-706.92,-288.17,-702.35,-295.23,-698.27,-301.33
C-694.18,-307.44,-689.42,-314.31,-685.16,-320.24
C-680.9,-326.17,-675.94,-332.85,-671.52,-338.6
C-667.1,-344.36,-661.95,-350.83,-657.37,-356.41
C-652.79,-361.98,-647.46,-368.24,-642.73,-373.63
C-638,-379.02,-632.51,-385.07,-627.63,-390.27
C-622.75,-395.47,-617.1,-401.3,-612.09,-406.31
C-607.07,-411.32,-601.27,-416.92,-596.13,-421.73
C-590.98,-426.54,-585.04,-431.92,-579.78,-436.53
C-574.51,-441.14,-568.43,-446.29,-563.05,-450.69
C-557.68,-455.1,-551.47,-460.01,-545.99,-464.21
C-540.51,-468.41,-534.19,-473.09,-528.61,-477.08
C-523.03,-481.07,-516.6,-485.51,-510.93,-489.29
C-505.26,-493.07,-498.73,-497.26,-492.98,-500.83
C-487.23,-504.4,-480.62,-508.35,-474.79,-511.7
C-468.97,-515.05,-462.28,-518.76,-456.39,-521.9
C-450.5,-525.03,-443.74,-528.49,-437.79,-531.41
C-431.84,-534.33,-425.02,-537.54,-419.02,-540.25
C-413.03,-542.95,-406.15,-545.92,-400.12,-548.4
C-394.08,-550.89,-387.16,-553.6,-381.1,-555.87
C-375.03,-558.14,-368.08,-560.61,-361.98,-562.66
C-355.89,-564.71,-348.92,-566.93,-342.8,-568.77
C-336.69,-570.6,-329.7,-572.58,-323.58,-574.2
C-317.46,-575.82,-310.47,-577.55,-304.35,-578.95
C-298.23,-580.36,-291.24,-581.84,-285.12,-583.04
C-279.01,-584.23,-272.03,-585.47,-265.93,-586.46
C-259.83,-587.44,-252.87,-588.44,-246.79,-589.21
C-240.71,-589.99,-233.78,-590.75,-227.73,-591.32
C-221.68,-591.89,-214.79,-592.42,-208.78,-592.78
C-202.77,-593.14,-195.92,-593.44,-189.95,-593.61
C-183.98,-593.77,-177.19,-593.84,-171.27,-593.81
C-165.35,-593.77,-158.62,-593.62,-152.76,-593.39
C-146.9,-593.16,-140.24,-592.79,-134.44,-592.37
C-128.64,-591.95,-122.06,-591.36,-116.33,-590.75
C-110.6,-590.14,-104.1,-589.34,-98.45,-588.55
C-92.8,-587.76,-86.39,-586.76,-80.82,-585.79
C-75.26,-584.82,-68.95,-583.61,-63.47,-582.47
C-57.99,-581.33,-51.78,-579.92,-46.4,-578.61
C-41.01,-577.3,-34.92,-575.71,-29.63,-574.23
C-24.35,-572.75,-18.37,-570.98,-13.19,-569.34
C-8.01,-567.7,-2.16,-565.75,2.91,-563.96
C7.98,-562.17,13.71,-560.04,18.66,-558.1
C23.61,-556.16,29.21,-553.86,34.04,-551.78
C38.88,-549.7,44.33,-547.25,49.04,-545.03
C53.75,-542.81,59.06,-540.2,63.64,-537.85
C68.23,-535.5,73.38,-532.74,77.84,-530.27
C82.29,-527.8,87.3,-524.9,91.61,-522.31
C95.93,-519.71,100.78,-516.68,104.96,-513.98
C109.14,-511.27,113.83,-508.12,117.86,-505.3
C121.9,-502.49,126.43,-499.22,130.32,-496.3
C134.21,-493.39,138.58,-490.01,142.32,-487
C146.07,-483.99,150.26,-480.51,153.86,-477.41
C157.45,-474.32,161.47,-470.74,164.92,-467.56
C168.37,-464.39,172.22,-460.71,175.51,-457.46
C178.8,-454.22,182.48,-450.46,185.62,-447.15
C188.76,-443.83,192.25,-440.01,195.24,-436.63
C198.22,-433.25,201.54,-429.36,204.37,-425.93
C207.2,-422.5,210.34,-418.55,213.02,-415.07
C215.69,-411.59,218.66,-407.59,221.17,-404.07
C223.69,-400.55,226.47,-396.51,228.84,-392.96
C231.2,-389.4,233.8,-385.32,236,-381.74
C238.21,-378.16,240.64,-374.05,242.68,-370.45
C244.73,-366.85,246.98,-362.72,248.88,-359.1
C250.77,-355.48,252.85,-351.34,254.59,-347.72
C256.33,-344.09,258.22,-339.94,259.81,-336.32
C261.4,-332.69,263.12,-328.54,264.56,-324.92
C266,-321.29,267.55,-317.16,268.84,-313.54
C270.13,-309.93,271.51,-305.8,272.65,-302.21
C273.79,-298.61,275.01,-294.51,276.01,-290.93
C277,-287.35,278.06,-283.28,278.91,-279.73
C279.76,-276.18,280.66,-272.15,281.37,-268.63
C282.08,-265.11,282.82,-261.12,283.4,-257.64
C283.98,-254.16,284.56,-250.21,285,-246.78
C285.44,-243.34,285.87,-239.45,286.19,-236.06
C286.5,-232.68,286.78,-228.84,286.97,-225.51
C287.16,-222.18,287.3,-218.41,287.37,-215.13
C287.43,-211.86,287.44,-208.16,287.38,-204.95
C287.33,-201.74,287.2,-198.11,287.03,-194.97
C286.86,-191.82,286.6,-188.28,286.32,-185.21
C286.04,-182.14,285.66,-178.67,285.27,-175.68
C284.89,-172.68,284.39,-169.3,283.9,-166.39
C283.41,-163.47,282.8,-160.19,282.22,-157.36
C281.63,-154.53,280.91,-151.34,280.23,-148.59
C279.56,-145.85,278.73,-142.76,277.97,-140.1
C277.21,-137.45,276.29,-134.46,275.44,-131.9
C274.6,-129.33,273.58,-126.46,272.66,-123.99
C271.74,-121.52,270.64,-118.75,269.65,-116.38
C268.66,-114,267.48,-111.35,266.42,-109.08
C265.36,-106.8,264.11,-104.26,262.99,-102.09
C261.87,-99.92,260.56,-97.49,259.38,-95.42
C258.2,-93.35,256.82,-91.05,255.6,-89.08
C254.37,-87.12,252.94,-84.93,251.67,-83.07
C250.4,-81.21,248.92,-79.15,247.61,-77.39
C246.3,-75.64,244.78,-73.69,243.43,-72.05
C242.09,-70.4,240.53,-68.58,239.16,-67.04
C237.78,-65.5,236.2,-63.8,234.8,-62.37
C233.41,-60.94,231.8,-59.36,230.39,-58.04
C228.98,-56.71,227.35,-55.26,225.93,-54.04
C224.5,-52.82,222.87,-51.49,221.44,-50.38
C220.01,-49.27,218.37,-48.06,216.94,-47.05
C215.5,-46.04,213.87,-44.95,212.44,-44.05
C211.01,-43.15,209.38,-42.18,207.97,-41.38
C206.55,-40.58,204.93,-39.73,203.53,-39.03
C202.13,-38.33,200.53,-37.6,199.15,-37
C197.76,-36.4,196.2,-35.78,194.84,-35.28
C193.48,-34.78,191.94,-34.26,190.61,-33.86
C189.28,-33.46,187.78,-33.05,186.48,-32.74
C185.19,-32.43,183.73,-32.13,182.47,-31.91
C181.22,-31.69,179.8,-31.49,178.59,-31.36
C177.38,-31.23,176.02,-31.13,174.85,-31.08
C173.69,-31.03,172.38,-31.03,171.27,-31.06
C170.16,-31.1,168.92,-31.19,167.86,-31.3
C166.8,-31.41,165.62,-31.59,164.63,-31.78
C163.63,-31.96,162.52,-32.22,161.59,-32.48
C160.66,-32.74,159.63,-33.07,158.76,-33.4
C157.89,-33.73,156.94,-34.14,156.14,-34.53
C155.35,-34.91,154.48,-35.4,153.75,-35.84
C153.03,-36.29,152.25,-36.84,151.6,-37.34
C150.95,-37.84,150.26,-38.45,149.69,-39
C149.12,-39.55,148.52,-40.21,148.03,-40.81
C147.54,-41.41,147.03,-42.12,146.63,-42.76
C146.23,-43.4,145.82,-44.15,145.5,-44.82
C145.18,-45.5,144.87,-46.29,144.64,-47
C144.41,-47.7,144.2,-48.53,144.06,-49.26
C143.92,-49.99,143.81,-50.84,143.76,-51.6
C143.71,-52.35,143.7,-53.22,143.75,-53.99
C143.79,-54.76,143.89,-55.65,144.02,-56.43
C144.16,-57.21,144.36,-58.11,144.59,-58.9
C144.82,-59.69,145.14,-60.59,145.46,-61.38
C145.78,-62.16,146.2,-63.06,146.62,-63.85
C147.03,-64.63,147.56,-65.52,148.07,-66.3
C148.58,-67.07,149.22,-67.95,149.82,-68.7
C150.42,-69.46,151.17,-70.32,151.86,-71.06
C152.56,-71.8,153.41,-72.63,154.2,-73.34
C154.99,-74.06,155.94,-74.86,156.82,-75.54
C157.7,-76.22,158.76,-76.98,159.73,-77.63
C160.7,-78.28,161.86,-79,162.92,-79.6
C163.97,-80.21,165.23,-80.88,166.38,-81.44
C167.52,-82,168.88,-82.61,170.11,-83.12
C171.34,-83.63,172.8,-84.19,174.11,-84.64
C175.42,-85.1,176.97,-85.59,178.36,-85.98
C179.75,-86.38,181.39,-86.79,182.86,-87.12
C184.33,-87.45,186.06,-87.79,187.6,-88.05
C189.15,-88.32,190.95,-88.57,192.57,-88.76
C194.19,-88.95,196.08,-89.12,197.76,-89.23
C199.45,-89.34,201.41,-89.42,203.16,-89.45
C204.91,-89.47,206.95,-89.46,208.76,-89.4
C210.57,-89.34,212.67,-89.23,214.54,-89.08
C216.41,-88.93,218.58,-88.71,220.5,-88.47
C222.42,-88.23,224.65,-87.9,226.62,-87.56
C228.59,-87.22,230.87,-86.78,232.89,-86.34
C234.9,-85.9,237.23,-85.34,239.29,-84.8
C241.34,-84.26,243.72,-83.58,245.81,-82.93
C247.9,-82.28,250.31,-81.48,252.43,-80.72
C254.55,-79.96,257,-79.04,259.14,-78.17
C261.29,-77.3,263.76,-76.24,265.93,-75.26
C268.1,-74.28,270.59,-73.09,272.77,-71.99
C274.96,-70.89,277.46,-69.57,279.65,-68.35
C281.85,-67.14,284.36,-65.68,286.56,-64.35
C288.76,-63.01,291.27,-61.42,293.47,-59.96
C295.66,-58.5,298.17,-56.77,300.36,-55.19
C302.56,-53.61,305.05,-51.74,307.23,-50.04
C309.41,-48.34,311.89,-46.33,314.05,-44.5
C316.22,-42.68,318.67,-40.52,320.81,-38.58
C322.95,-36.63,325.37,-34.33,327.48,-32.26
C329.59,-30.19,331.98,-27.75,334.05,-25.55
C336.12,-23.36,338.47,-20.78,340.5,-18.46
C342.53,-16.14,344.82,-13.42,346.81,-10.98
C348.79,-8.54,351.03,-5.68,352.96,-3.11
C354.89,-0.55,357.06,2.45,358.94,5.14
C360.81,7.82,362.91,10.96,364.72,13.76
C366.52,16.57,368.55,19.84,370.28,22.76
C372.02,25.69,373.96,29.09,375.62,32.13
C377.28,35.17,379.13,38.7,380.71,41.86
C382.29,45.01,384.04,48.68,385.53,51.94
C387.02,55.2,388.67,59,390.06,62.37
C391.46,65.74,393,69.66,394.3,73.14
C395.6,76.61,397.02,80.65,398.21,84.23
C399.41,87.81,400.71,91.96,401.79,95.64
C402.87,99.32,404.05,103.58,405.02,107.36
C405.98,111.14,407.02,115.5,407.87,119.37
C408.72,123.24,409.62,127.71,410.35,131.67
C411.07,135.62,411.83,140.19,412.42,144.23
C413.02,148.27,413.62,152.93,414.08,157.05
C414.54,161.17,414.99,165.92,415.31,170.12
C415.64,174.31,415.92,179.14,416.1,183.4
C416.28,187.66,416.41,192.57,416.44,196.9
C416.47,201.23,416.43,206.2,416.31,210.59
C416.19,214.98,415.97,220.02,415.7,224.46
C415.42,228.9,415.03,234,414.6,238.48
C414.17,242.97,413.59,248.12,412.99,252.65
C412.4,257.18,411.64,262.37,410.88,266.94
C410.13,271.5,409.17,276.73,408.25,281.33
C407.33,285.92,406.18,291.18,405.09,295.8
C404,300.42,402.66,305.7,401.39,310.34
C400.13,314.97,398.59,320.27,397.15,324.92
C395.72,329.56,393.98,334.87,392.36,339.52
C390.75,344.17,388.81,349.48,387.02,354.12
C385.23,358.77,383.09,364.07,381.12,368.71
C379.15,373.34,376.8,378.63,374.66,383.25
C372.51,387.86,369.96,393.13,367.63,397.72
C365.3,402.32,362.54,407.55,360.03,412.11
C357.52,416.68,354.56,421.87,351.87,426.39
C349.18,430.92,346.01,436.06,343.14,440.54
C340.27,445.02,336.89,450.11,333.84,454.54
C330.79,458.97,327.21,463.99,323.98,468.36
C320.75,472.73,316.96,477.68,313.55,481.98
C310.14,486.28,306.15,491.15,302.56,495.38
C298.98,499.6,294.78,504.39,291.02,508.53
C287.26,512.68,282.86,517.36,278.93,521.42
C274.99,525.48,270.4,530.06,266.29,534.02
C262.19,537.98,257.4,542.45,253.12,546.3
C248.85,550.16,243.86,554.51,239.42,558.26
C234.98,562,229.81,566.22,225.2,569.85
C220.59,573.48,215.24,577.56,210.47,581.07
C205.7,584.58,200.16,588.51,195.24,591.89
C190.31,595.27,184.6,599.05,179.52,602.29
C174.44,605.53,168.56,609.15,163.33,612.25
C158.1,615.34,152.04,618.8,146.67,621.74
C141.3,624.69,135.08,627.97,129.57,630.76
C124.05,633.55,117.68,636.65,112.03,639.28
C106.38,641.91,99.86,644.82,94.08,647.28
C88.3,649.74,81.62,652.45,75.72,654.73
C69.82,657.02,63,659.53,56.98,661.64
C50.96,663.74,44.01,666.05,37.87,667.97
C31.74,669.89,24.67,671.98,18.42,673.71
C12.18,675.44,4.99,677.31,-1.36,678.85
C-7.7,680.39,-15.01,682.03,-21.45,683.37
C-27.89,684.7,-35.3,686.12,-41.82,687.25
C-48.35,688.38,-55.85,689.56,-62.46,690.48
C-69.07,691.4,-76.66,692.34,-83.35,693.05
C-90.03,693.76,-97.7,694.45,-104.45,694.95
C-111.2,695.44,-118.95,695.88,-125.75,696.16
C-132.56,696.43,-140.37,696.62,-147.23,696.67
C-154.09,696.72,-161.95,696.66,-168.86,696.48
C-175.76,696.31,-183.67,695.98,-190.61,695.57
C-197.55,695.17,-205.49,694.58,-212.46,693.94
C-219.43,693.31,-227.4,692.45,-234.39,691.58
C-241.38,690.72,-249.37,689.59,-256.37,688.49
C-263.37,687.38,-271.36,685.99,-278.37,684.65
C-285.37,683.31,-293.37,681.64,-300.36,680.06
C-307.36,678.48,-315.35,676.55,-322.33,674.73
C-329.32,672.91,-337.28,670.7,-344.24,668.64
C-351.2,666.59,-359.14,664.1,-366.07,661.81
C-373,659.51,-380.9,656.75,-387.79,654.21
C-394.68,651.68,-402.53,648.64,-409.37,645.87
C-416.21,643.09,-424,639.79,-430.79,636.78
C-437.57,633.76,-445.29,630.18,-452.01,626.93
C-458.73,623.68,-466.37,619.83,-473.02,616.34
C-479.66,612.85,-487.21,608.74,-493.77,605.01
C-500.34,601.29,-507.79,596.91,-514.26,592.95
C-520.73,589,-528.07,584.35,-534.44,580.16
C-540.82,575.98,-548.04,571.06,-554.3,566.65
C-560.57,562.24,-567.66,557.07,-573.8,552.43
C-579.95,547.79,-586.91,542.37,-592.93,537.51
C-598.95,532.65,-605.76,526.97,-611.65,521.9
C-617.54,516.82,-624.19,510.9,-629.94,505.6
C-635.68,500.31,-642.17,494.15,-647.76,488.65
C-653.36,483.15,-659.67,476.74,-665.11,471.04
C-670.55,465.33,-676.68,458.7,-681.96,452.79
C-687.23,446.89,-693.16,440.03,-698.27,433.92
C-703.37,427.82,-709.1,420.74,-714.02,414.45
C-718.95,408.16,-724.47,400.86,-729.21,394.39
C-733.94,387.91,-739.25,380.41,-743.79,373.76
C-748.33,367.1,-753.41,359.4,-757.75,352.57
C-762.09,345.74,-766.94,337.85,-771.07,330.86
C-775.21,323.86,-779.81,315.78,-783.73,308.63
C-787.65,301.48,-792.01,293.22,-795.71,285.92
C-799.41,278.62,-803.51,270.19,-806.98,262.74
C-810.46,255.29,-814.3,246.7,-817.54,239.12
C-820.78,231.53,-824.35,222.79,-827.36,215.08
C-830.37,207.36,-833.66,198.48,-836.43,190.64
C-839.19,182.8,-842.21,173.78,-844.73,165.83
C-847.25,157.88,-849.98,148.74,-852.24,140.68
C-854.51,132.62,-856.96,123.36,-858.96,115.21
C-860.98,107.06,-863.12,97.69,-864.88,89.45
C-866.62,81.21,-868.48,71.74,-869.96,63.42
C-871.45,55.1,-873,45.55,-874.22,37.16
C-875.44,28.77,-876.68,19.15,-877.63,10.69
C-878.58,2.24,-879.51,-7.45,-880.19,-15.96
C-880.87,-24.46,-881.48,-34.21,-881.89,-42.76
C-882.29,-51.31,-882.59,-61.09,-882.72,-69.68
C-882.84,-78.26,-882.83,-88.08,-882.68,-96.69
C-882.53,-105.3,-882.19,-115.14,-881.76,-123.76
C-881.33,-132.38,-880.67,-142.24,-879.96,-150.86
C-879.24,-159.49,-878.27,-169.34,-877.27,-177.97
C-876.28,-186.59,-874.98,-196.43,-873.7,-205.04
C-872.42,-213.65,-870.8,-223.47,-869.24,-232.06
C-867.68,-240.64,-865.74,-250.43,-863.9,-258.98
C-862.06,-267.53,-859.79,-277.28,-857.67,-285.78
C-855.55,-294.29,-852.96,-303.98,-850.56,-312.44
C-848.16,-320.89,-845.25,-330.51,-842.57,-338.9
C-839.89,-347.3,-836.67,-356.84,-833.71,-365.16
C-830.75,-373.48,-827.21,-382.94,-823.98,-391.17
C-820.75,-399.41,-816.9,-408.77,-813.39,-416.91
C-809.89,-425.06,-805.73,-434.3,-801.95,-442.35
C-798.18,-450.39,-793.71,-459.52,-789.67,-467.45
C-785.63,-475.38,-780.86,-484.38,-776.56,-492.19
C-772.25,-500.01,-767.19,-508.86,-762.62,-516.54
C-758.06,-524.23,-752.7,-532.93,-747.88,-540.47
C-743.06,-548.02,-737.42,-556.56,-732.35,-563.96
C-727.28,-571.36,-721.34,-579.72,-716.03,-586.97
C-710.71,-594.21,-704.51,-602.39,-698.95,-609.47
C-693.39,-616.55,-686.91,-624.54,-681.12,-631.45
C-675.33,-638.36,-668.58,-646.14,-662.56,-652.87
C-656.54,-659.6,-649.54,-667.18,-643.29,-673.71
C-637.05,-680.25,-629.79,-687.61,-623.33,-693.95
C-616.87,-700.29,-609.37,-707.42,-602.69,-713.56
C-596.02,-719.69,-588.28,-726.58,-581.41,-732.51
C-574.53,-738.44,-566.56,-745.08,-559.49,-750.79
C-552.42,-756.5,-544.23,-762.89,-536.97,-768.37
C-529.71,-773.85,-521.31,-779.98,-513.86,-785.24
C-506.42,-790.48,-497.82,-796.35,-490.2,-801.36
C-482.58,-806.37,-473.78,-811.96,-466,-816.73
C-458.22,-821.5,-449.23,-826.8,-441.29,-831.32
C-433.35,-835.84,-424.2,-840.85,-416.1,-845.12
C-408.02,-849.38,-398.69,-854.1,-390.46,-858.1
C-382.23,-862.1,-372.75,-866.53,-364.39,-870.26
C-356.03,-874,-346.4,-878.12,-337.92,-881.58
C-329.44,-885.05,-319.68,-888.86,-311.08,-892.05
C-302.48,-895.24,-292.6,-898.73,-283.9,-901.65
C-275.2,-904.56,-265.2,-907.73,-256.41,-910.37
C-247.61,-913,-237.51,-915.85,-228.63,-918.2
C-219.75,-920.55,-209.56,-923.07,-200.61,-925.13
C-191.65,-927.19,-181.38,-929.38,-172.36,-931.15
C-163.34,-932.92,-153,-934.78,-143.92,-936.26
C-134.85,-937.74,-124.45,-939.26,-115.33,-940.45
C-106.21,-941.64,-95.77,-942.82,-86.61,-943.72
C-77.45,-944.61,-66.98,-945.46,-57.79,-946.05
C-48.61,-946.64,-38.11,-947.15,-28.91,-947.45
C-19.71,-947.75,-9.2,-947.92,0,-947.92
C9.2,-947.92,19.71,-947.75,28.91,-947.45
C38.11,-947.15,48.61,-946.64,57.79,-946.05
C66.98,-945.46,77.45,-944.61,86.61,-943.72
C95.77,-942.82,106.21,-941.64,115.33,-940.45
C124.45,-939.26,134.85,-937.74,143.92,-936.26
C153,-934.78,163.34,-932.92,172.36,-931.15
C181.38,-929.38,191.65,-927.19,200.61,-925.13
C209.56,-923.07,219.75,-920.55,228.63,-918.2
C237.51,-915.85,247.61,-913,256.41,-910.37
C265.2,-907.73,275.2,-904.56,283.9,-901.65
C292.6,-898.73,302.48,-895.24,311.08,-892.05
C319.68,-888.86,329.44,-885.05,337.92,-881.58
C346.4,-878.12,356.03,-874,364.39,-870.26
C372.75,-866.53,382.23,-862.1,390.46,-858.1
C398.69,-854.1,408.02,-849.38,416.1,-845.12
C424.2,-840.85,433.35,-835.84,441.29,-831.32
C449.23,-826.8,458.22,-821.5,466,-816.73
C473.78,-811.96,482.58,-806.37,490.2,-801.36
C497.82,-796.35,506.42,-790.48,513.86,-785.24
C521.31,-779.98,529.71,-773.85,536.97,-768.37
C544.23,-762.89,552.42,-756.5,559.49,-750.79
C566.56,-745.08,574.53,-738.44,581.41,-732.51
C588.28,-726.58,596.02,-719.69,602.69,-713.56
C609.37,-707.42,616.87,-700.29,623.33,-693.95
C629.79,-687.61,637.05,-680.25,643.29,-673.71
C649.54,-667.18,656.54,-659.6,662.56,-652.87
C668.58,-646.14,675.33,-638.36,681.12,-631.45
C686.91,-624.54,693.39,-616.55,698.95,-609.47
C704.51,-602.39,710.71,-594.21,716.03,-586.97
C721.34,-579.72,727.28,-571.36,732.35,-563.96
C737.42,-556.56,743.06,-548.02,747.88,-540.47
C752.7,-532.93,758.06,-524.23,762.62,-516.54
C767.19,-508.86,772.25,-500.01,776.56,-492.19
C780.86,-484.38,785.63,-475.38,789.67,-467.45
C793.71,-459.52,798.18,-450.39,801.95,-442.35
C805.73,-434.3,809.89,-425.06,813.39,-416.91
C816.9,-408.77,820.75,-399.41,823.98,-391.17
C827.21,-382.94,830.75,-373.48,833.71,-365.16
C836.67,-356.84,839.89,-347.3,842.57,-338.9
C845.25,-330.51,848.16,-320.89,850.56,-312.44
C852.96,-303.98,855.55,-294.29,857.67,-285.78
C859.79,-277.28,862.06,-267.53,863.9,-258.98
C865.74,-250.43,867.68,-240.64,869.24,-232.06
C870.8,-223.47,872.42,-213.65,873.7,-205.04
C874.98,-196.43,876.28,-186.59,877.27,-177.97
C878.27,-169.34,879.24,-159.49,879.96,-150.86
C880.67,-142.24,881.33,-132.38,881.76,-123.76
C882.19,-115.14,882.53,-105.3,882.68,-96.69
C882.83,-88.08,882.84,-78.26,882.72,-69.68
C882.59,-61.09,882.29,-51.31,881.89,-42.76
C881.48,-34.21,880.87,-24.46,880.19,-15.96
C879.51,-7.45,878.58,2.24,877.63,10.69
C876.68,19.15,875.44,28.77,874.22,37.16
C873,45.55,871.45,55.1,869.96,63.42
C868.48,71.74,866.62,81.21,864.88,89.45
C863.12,97.69,860.98,107.06,858.96,115.21
C856.96,123.36,854.51,132.62,852.24,140.68
C849.98,148.74,847.25,157.88,844.73,165.83
C842.21,173.78,839.19,182.8,836.43,190.64
C833.66,198.48,830.37,207.36,827.36,215.08
C824.35,222.79,820.78,231.53,817.54,239.12
C814.3,246.7,810.46,255.29,806.98,262.74
C803.51,270.19,799.41,278.62,795.71,285.92
C792.01,293.22,787.65,301.48,783.73,308.63
C779.81,315.78,775.21,323.86,771.07,330.86
C766.94,337.85,762.09,345.74,757.75,352.57
C753.41,359.4,748.33,367.1,743.79,373.76
C739.25,380.41,733.94,387.91,729.21,394.39
C724.47,400.86,718.95,408.16,714.02,414.45
C709.1,420.74,703.37,427.82,698.27,433.92
C693.16,440.03,687.23,446.89,681.96,452.79
C676.68,458.7,670.55,465.33,665.11,471.04
C659.67,476.74,653.36,483.15,647.76,488.65
C642.17,494.15,635.68,500.31,629.94,505.6
C624.19,510.9,617.54,516.82,611.65,521.9
C605.76,526.97,598.95,532.65,592.93,537.51
C586.91,542.37,579.95,547.79,573.8,552.43
C567.66,557.07,560.57,562.24,554.3,566.65
C548.04,571.06,540.82,575.98,534.44,580.16
C528.07,584.35,520.73,589,514.26,592.95
C507.79,596.91,500.34,601.29,493.77,605.01
C487.21,608.74,479.66,612.85,473.02,616.34
C466.37,619.83,458.73,623.68,452.01,626.93
C445.29,630.18,437.57,633.76,430.79,636.78
C424,639.79,416.21,643.09,409.37,645.87
C402.53,648.64,394.68,651.68,387.79,654.21
C380.9,656.75,373,659.51,366.07,661.81
C359.14,664.1,351.2,666.59,344.24,668.64
C337.28,670.7,329.32,672.91,322.33,674.73
C315.35,676.55,307.36,678.48,300.36,680.06
C293.37,681.64,285.37,683.31,278.37,684.65
C271.36,685.99,263.37,687.38,256.37,688.49
C249.37,689.59,241.38,690.72,234.39,691.58
C227.4,692.45,219.43,693.31,212.46,693.94
C205.49,694.58,197.55,695.17,190.61,695.57
C183.67,695.98,175.76,696.31,168.86,696.48
C161.95,696.66,154.09,696.72,147.23,696.67
C140.37,696.62,132.56,696.43,125.75,696.16
C118.95,695.88,111.2,695.44,104.45,694.95
C97.7,694.45,90.03,693.76,83.35,693.05
C76.66,692.34,69.07,691.4,62.46,690.48
C55.85,689.56,48.35,688.38,41.82,687.25
C35.3,686.12,27.89,684.7,21.45,683.37
C15.01,682.03,7.7,680.39,1.36,678.85
C-4.99,677.31,-12.18,675.44,-18.42,673.71
C-24.67,671.98,-31.74,669.89,-37.87,667.97
C-44.01,666.05,-50.96,663.74,-56.98,661.64
C-63,659.53,-69.82,657.02,-75.72,654.73
C-81.62,652.45,-88.3,649.74,-94.08,647.28
C-99.86,644.82,-106.38,641.91,-112.03,639.28
C-117.68,636.65,-124.05,633.55,-129.57,630.76
C-135.08,627.97,-141.3,624.69,-146.67,621.74
C-152.04,618.8,-158.1,615.34,-163.33,612.25
C-168.56,609.15,-174.44,605.53,-179.52,602.29
C-184.6,599.05,-190.31,595.27,-195.24,591.89
C-200.16,588.51,-205.7,584.58,-210.47,581.07
C-215.24,577.56,-220.59,573.48,-225.2,569.85
C-229.81,566.22,-234.98,562,-239.42,558.26
C-243.86,554.51,-248.85,550.16,-253.12,546.3
C-257.4,542.45,-262.19,537.98,-266.29,534.02
C-270.4,530.06,-274.99,525.48,-278.93,521.42
C-282.86,517.36,-287.26,512.68,-291.02,508.53
C-294.78,504.39,-298.98,499.6,-302.56,495.38
C-306.15,491.15,-310.14,486.28,-313.55,481.98
C-316.96,477.68,-320.75,472.73,-323.98,468.36
C-327.21,463.99,-330.79,458.97,-333.84,454.54
C-336.89,450.11,-340.27,445.02,-343.14,440.54
C-346.01,436.06,-349.18,430.92,-351.87,426.39
C-354.56,421.87,-357.52,416.68,-360.03,412.11
C-362.54,407.55,-365.3,402.32,-367.63,397.72
C-369.96,393.13,-372.51,387.86,-374.66,383.25
C-376.8,378.63,-379.15,373.34,-381.12,368.71
C-383.09,364.07,-385.23,358.77,-387.02,354.12
C-388.81,349.48,-390.75,344.17,-392.36,339.52
C-393.98,334.87,-395.72,329.56,-397.15,324.92
C-398.59,320.27,-400.13,314.97,-401.39,310.34
C-402.66,305.7,-404,300.42,-405.09,295.8
C-406.18,291.18,-407.33,285.92,-408.25,281.33
C-409.17,276.73,-410.13,271.5,-410.88,266.94
C-411.64,262.37,-412.4,257.18,-412.99,252.65
C-413.59,248.12,-414.17,242.97,-414.6,238.48
C-415.03,234,-415.42,228.9,-415.7,224.46
C-415.97,220.02,-416.19,214.98,-416.31,210.59
C-416.43,206.2,-416.47,201.23,-416.44,196.9
C-416.41,192.57,-416.28,187.66,-416.1,183.4
C-415.92,179.14,-415.64,174.31,-415.31,170.12
C-414.99,165.92,-414.54,161.17,-414.08,157.05
C-413.62,152.93,-413.02,148.27,-412.42,144.23
C-411.83,140.19,-411.07,135.62,-410.35,131.67
C-409.62,127.71,-408.72,123.24,-407.87,119.37
C-407.02,115.5,-405.98,111.14,-405.02,107.36
C-404.05,103.58,-402.87,99.32,-401.79,95.64
C-400.71,91.96,-399.41,87.81,-398.21,84.23
C-397.02,80.65,-395.6,76.61,-394.3,73.14
C-393,69.66,-391.46,65.74,-390.06,62.37
C-388.67,59,-387.02,55.2,-385.53,51.94
C-384.04,48.68,-382.29,45.01,-380.71,41.86
C-379.13,38.7,-377.28,35.17,-375.62,32.13
C-373.96,29.09,-372.02,25.69,-370.28,22.76
C-368.55,19.84,-366.52,16.57,-364.72,13.76
C-362.91,10.96,-360.81,7.82,-358.94,5.14
C-357.06,2.45,-354.89,-0.55,-352.96,-3.11
C-351.03,-5.68,-348.79,-8.54,-346.81,-10.98
C-344.82,-13.42,-342.53,-16.14,-340.5,-18.46
C-338.47,-20.78,-336.12,-23.36,-334.05,-25.55
C-331.98,-27.75,-329.59,-30.19,-327.48,-32.26
C-325.37,-34.33,-322.95,-36.63,-320.81,-38.58
C-318.67,-40.52,-316.22,-42.68,-314.05,-44.5
C-311.89,-46.33,-309.41,-48.34,-307.23,-50.04
C-305.05,-51.74,-302.56,-53.61,-300.36,-55.19
C-298.17,-56.77,-295.66,-58.5,-293.47,-59.96
C-291.27,-61.42,-288.76,-63.01,-286.56,-64.35
C-284.36,-65.68,-281.85,-67.14,-279.65,-68.35
C-277.46,-69.57,-274.96,-70.89,-272.77,-71.99
C-270.59,-73.09,-268.1,-74.28,-265.93,-75.26
C-263.76,-76.24,-261.29,-77.3,-259.14,-78.17
C-257,-79.04,-254.55,-79.96,-252.43,-80.72
C-250.31,-81.48,-247.9,-82.28,-245.81,-82.93
C-243.72,-83.58,-241.34,-84.26,-239.29,-84.8
C-237.23,-85.34,-234.9,-85.9,-232.89,-86.34
C-230.87,-86.78,-228.59,-87.22,-226.62,-87.56
C-224.65,-87.9,-222.42,-88.23,-220.5,-88.47
C-218.58,-88.71,-216.41,-88.93,-214.54,-89.08
C-212.67,-89.23,-210.57,-89.34,-208.76,-89.4
C-206.95,-89.46,-204.91,-89.47,-203.16,-89.45
C-201.41,-89.42,-199.45,-89.34,-197.76,-89.23
C-196.08,-89.12,-194.19,-88.95,-192.57,-88.76
C-190.95,-88.57,-189.15,-88.32,-187.6,-88.05
C-186.06,-87.79,-184.33,-87.45,-182.86,-87.12
C-181.39,-86.79,-179.75,-86.38,-178.36,-85.98
C-176.97,-85.59,-175.42,-85.1,-174.11,-84.64
C-172.8,-84.19,-171.34,-83.63,-170.11,-83.12
C-168.88,-82.61,-167.52,-82,-166.38,-81.44
C-165.23,-80.88,-163.97,-80.21,-162.92,-79.6
C-161.86,-79,-160.7,-78.28,-159.73,-77.63
C-158.76,-76.98,-157.7,-76.22,-156.82,-75.54
C-155.94,-74.86,-154.99,-74.06,-154.2,-73.34
C-153.41,-72.63,-152.56,-71.8,-151.86,-71.06
C-151.17,-70.32,-150.42,-69.46,-149.82,-68.7
C-149.22,-67.95,-148.58,-67.07,-148.07,-66.3
C-147.56,-65.52,-147.03,-64.63,-146.62,-63.85
C-146.2,-63.06,-145.78,-62.16,-145.46,-61.38
C-145.14,-60.59,-144.82,-59.69,-144.59,-58.9
C-144.36,-58.11,-144.16,-57.21,-144.02,-56.43
C-143.89,-55.65,-143.79,-54.76,-143.75,-53.99
C-143.7,-53.22,-143.71,-52.35,-143.76,-51.6
C-143.81,-50.84,-143.92,-49.99,-144.06,-49.26
C-144.2,-48.53,-144.41,-47.7,-144.64,-47
C-144.87,-46.29,-145.18,-45.5,-145.5,-44.82
C-145.82,-44.15,-146.23,-43.4,-146.63,-42.76
C-147.03,-42.12,-147.54,-41.41,-148.03,-40.81
C-148.52,-40.21,-149.12,-39.55,-149.69,-39
C-150.26,-38.45,-150.95,-37.84,-151.6,-37.34
C-152.25,-36.84,-153.03,-36.29,-153.75,-35.84
C-154.48,-35.4,-155.35,-34.91,-156.14,-34.53
C-156.94,-34.14,-157.89,-33.73,-158.76,-33.4
C-159.63,-33.07,-160.66,-32.74,-161.59,-32.48
C-162.52,-32.22,-163.63,-31.96,-164.63,-31.78
C-165.62,-31.59,-166.8,-31.41,-167.86,-31.3
C-168.92,-31.19,-170.16,-31.1,-171.27,-31.06
C-172.38,-31.03,-173.69,-31.03,-174.85,-31.08
C-176.02,-31.13,-177.38,-31.23,-178.59,-31.36
C-179.8,-31.49,-181.22,-31.69,-182.47,-31.91
C-183.73,-32.13,-185.19,-32.43,-186.48,-32.74
C-187.78,-33.05,-189.28,-33.46,-190.61,-33.86
C-191.94,-34.26,-193.48,-34.78,-194.84,-35.28
C-196.2,-35.78,-197.76,-36.4,-199.15,-37
C-200.53,-37.6,-202.13,-38.33,-203.53,-39.03
C-204.93,-39.73,-206.55,-40.58,-207.97,-41.38
C-209.38,-42.18,-211.01,-43.15,-212.44,-44.05
C-213.87,-44.95,-215.5,-46.04,-216.94,-47.05
C-218.37,-48.06,-220.01,-49.27,-221.44,-50.38
C-222.87,-51.49,-224.5,-52.82,-225.93,-54.04
C-227.35,-55.26,-228.98,-56.71,-230.39,-58.04
C-231.8,-59.36,-233.41,-60.94,-234.8,-62.37
C-236.2,-63.8,-237.78,-65.5,-239.16,-67.04
C-240.53,-68.58,-242.09,-70.4,-243.43,-72.05
C-244.78,-73.69,-246.3,-75.64,-247.61,-77.39
C-248.92,-79.15,-250.4,-81.21,-251.67,-83.07
C-252.94,-84.93,-254.37,-87.12,-255.6,-89.08
C-256.82,-91.05,-258.2,-93.35,-259.38,-95.42
C-260.56,-97.49,-261.87,-99.92,-262.99,-102.09
C-264.11,-104.26,-265.36,-106.8,-266.42,-109.08
C-267.48,-111.35,-268.66,-114,-269.65,-116.38
C-270.64,-118.75,-271.74,-121.52,-272.66,-123.99
C-273.58,-126.46,-274.6,-129.33,-275.44,-131.9
C-276.29,-134.46,-277.21,-137.45,-277.97,-140.1
C-278.73,-142.76,-279.56,-145.85,-280.23,-148.59
C-280.91,-151.34,-281.63,-154.53,-282.22,-157.36
C-282.8,-160.19,-283.41,-163.47,-283.9,-166.39
C-284.39,-169.3,-284.89,-172.68,-285.27,-175.68
C-285.66,-178.67,-286.04,-182.14,-286.32,-185.21
C-286.6,-188.28,-286.86,-191.82,-287.03,-194.97
C-287.2,-198.11,-287.33,-201.74,-287.38,-204.95
C-287.44,-208.16,-287.43,-211.86,-287.37,-215.13
C-287.3,-218.41,-287.16,-222.18,-286.97,-225.51
C-286.78,-228.84,-286.5,-232.68,-286.19,-236.06
C-285.87,-239.45,-285.44,-243.34,-285,-246.78
C-284.56,-250.21,-283.98,-254.16,-283.4,-257.64
C-282.82,-261.12,-282.08,-265.11,-281.37,-268.63
C-280.66,-272.15,-279.76,-276.18,-278.91,-279.73
C-278.06,-283.28,-277,-287.35,-276.01,-290.93
C-275.01,-294.51,-273.79,-298.61,-272.65,-302.21
C-271.51,-305.8,-270.13,-309.93,-268.84,-313.54
C-267.55,-317.16,-266,-321.29,-264.56,-324.92
C-263.12,-328.54,-261.4,-332.69,-259.81,-336.32
C-258.22,-339.94,-256.33,-344.09,-254.59,-347.72
C-252.85,-351.34,-250.77,-355.48,-248.88,-359.1
C-246.98,-362.72,-244.73,-366.85,-242.68,-370.45
C-240.64,-374.05,-238.21,-378.16,-236,-381.74
C-233.8,-385.32,-231.2,-389.4,-228.84,-392.96
C-226.47,-396.51,-223.69,-400.55,-221.17,-404.07
C-218.66,-407.59,-215.69,-411.59,-213.02,-415.07
C-210.34,-418.55,-207.2,-422.5,-204.37,-425.93
C-201.54,-429.36,-198.22,-433.25,-195.24,-436.63
C-192.25,-440.01,-188.76,-443.83,-185.62,-447.15
C-182.48,-450.46,-178.8,-454.22,-175.51,-457.46
C-172.22,-460.71,-168.37,-464.39,-164.92,-467.56
C-161.47,-470.74,-157.45,-474.32,-153.86,-477.41
C-150.26,-480.51,-146.07,-483.99,-142.32,-487
C-138.58,-490.01,-134.21,-493.39,-130.32,-496.3
C-126.43,-499.22,-121.9,-502.49,-117.86,-505.3
C-113.83,-508.12,-109.14,-511.27,-104.96,-513.98
C-100.78,-516.68,-95.93,-519.71,-91.61,-522.31
C-87.3,-524.9,-82.29,-527.8,-77.84,-530.27
C-73.38,-532.74,-68.23,-535.5,-63.64,-537.85
C-59.06,-540.2,-53.75,-542.81,-49.04,-545.03
C-44.33,-547.25,-38.88,-549.7,-34.04,-551.78
C-29.21,-553.86,-23.61,-556.16,-18.66,-558.1
C-13.71,-560.04,-7.98,-562.17,-2.91,-563.96
C2.16,-565.75,8.01,-567.7,13.19,-569.34
C18.37,-570.98,24.35,-572.75,29.63,-574.23
C34.92,-575.71,41.01,-577.3,46.4,-578.61
C51.78,-579.92,57.99,-581.33,63.47,-582.47
C68.95,-583.61,75.26,-584.82,80.82,-585.79
C86.39,-586.76,92.8,-587.76,98.45,-588.55
C104.1,-589.34,110.6,-590.14,116.33,-590.75
C122.06,-591.36,128.64,-591.95,134.44,-592.37
C140.24,-592.79,146.9,-593.16,152.76,-593.39
C158.62,-593.62,165.35,-593.77,171.27,-593.81
C177.19,-593.84,183.98,-593.77,189.95,-593.61
C195.92,-593.44,202.77,-593.15,208.78,-592.78
C214.79,-592.42,221.68,-591.89,227.73,-591.32
C233.78,-590.75,240.71,-589.99,246.79,-589.21
C252.87,-588.44,259.83,-587.44,265.93,-586.45
C272.03,-585.47,279.01,-584.23,285.12,-583.04
C291.24,-581.84,298.23,-580.36,304.35,-578.95
C310.47,-577.55,317.46,-575.82,323.58,-574.2
C329.7,-572.58,336.69,-570.6,342.8,-568.77
C348.92,-566.93,355.89,-564.71,361.98,-562.66
C368.08,-560.61,375.03,-558.14,381.1,-555.87
C387.16,-553.6,394.08,-550.89,400.12,-548.4
C406.15,-545.92,413.03,-542.95,419.02,-540.25
C425.02,-537.54,431.84,-534.33,437.79,-531.41
C443.74,-528.49,450.5,-525.03,456.39,-521.9
C462.28,-518.76,468.97,-515.05,474.79,-511.7
C480.62,-508.35,487.23,-504.4,492.98,-500.83
C498.73,-497.26,505.26,-493.07,510.93,-489.29
C516.6,-485.51,523.03,-481.07,528.61,-477.08
C534.19,-473.09,540.51,-468.41,545.99,-464.21
C551.47,-460.01,557.68,-455.1,563.05,-450.69
C568.43,-446.29,574.51,-441.14,579.78,-436.53
C585.04,-431.92,590.98,-426.54,596.13,-421.73
C601.27,-416.92,607.07,-411.32,612.09,-406.31
C617.1,-401.3,622.75,-395.47,627.63,-390.27
C632.51,-385.07,638,-379.02,642.73,-373.63
C647.46,-368.24,652.79,-361.98,657.37,-356.41
C661.95,-350.83,667.1,-344.36,671.52,-338.6
C675.94,-332.85,680.9,-326.17,685.16,-320.24
C689.42,-314.31,694.18,-307.44,698.27,-301.33
C702.35,-295.23,706.92,-288.16,710.82,-281.9
C714.72,-275.63,719.08,-268.38,722.8,-261.95
C726.52,-255.52,730.66,-248.09,734.18,-241.51
C737.71,-234.93,741.63,-227.33,744.95,-220.6
C748.28,-213.87,751.97,-206.1,755.09,-199.23
C758.21,-192.36,761.66,-184.44,764.57,-177.43
C767.48,-170.43,770.69,-162.35,773.38,-155.22
C776.08,-148.09,779.03,-139.87,781.51,-132.62
C783.98,-125.37,786.68,-117.02,788.93,-109.65
C791.18,-102.28,793.61,-93.81,795.63,-86.34
C797.65,-78.87,799.82,-70.27,801.6,-62.71
C803.38,-55.14,805.28,-46.44,806.82,-38.78
C808.36,-31.12,809.98,-22.32,811.27,-14.58
C812.57,-6.84,813.91,2.05,814.96,9.87
C816,17.68,817.06,26.65,817.86,34.53
C818.66,42.41,819.42,51.44,819.96,59.38
C820.51,67.32,820.98,76.41,821.26,84.4
C821.55,92.38,821.73,101.53,821.76,109.55
C821.78,117.58,821.66,126.76,821.43,134.81
C821.19,142.87,820.77,152.08,820.27,160.16
C819.77,168.23,819.05,177.47,818.28,185.56
C817.52,193.64,816.49,202.88,815.46,210.98
C814.43,219.07,813.1,228.31,811.8,236.39
C810.5,244.48,808.86,253.7,807.3,261.77
C805.73,269.84,803.79,279.04,801.95,287.09
C800.12,295.13,797.87,304.3,795.77,312.31
C793.66,320.32,791.11,329.45,788.74,337.41
C786.37,345.38,783.51,354.45,780.87,362.36
C778.24,370.27,775.07,379.28,772.17,387.12
C769.27,394.98,765.8,403.9,762.64,411.68
C759.47,419.46,755.7,428.3,752.27,436
C748.85,443.69,744.78,452.44,741.09,460.04
C737.4,467.65,733.04,476.28,729.1,483.79
C725.15,491.29,720.5,499.81,716.3,507.21
C712.1,514.6,707.16,522.99,702.71,530.27
C698.26,537.55,693.03,545.8,688.33,552.95
C683.63,560.1,678.12,568.2,673.18,575.22
C668.24,582.24,662.45,590.17,657.27,597.05
C652.09,603.92,646.03,611.69,640.61,618.41
C635.2,625.13,628.88,632.72,623.23,639.28
C617.58,645.84,611,653.24,605.12,659.63
C599.25,666.02,592.41,673.22,586.32,679.43
C580.22,685.64,573.14,692.64,566.83,698.67
C560.52,704.7,553.2,711.47,546.68,717.31
C540.17,723.14,532.61,729.7,525.89,735.33
C519.17,740.96,511.38,747.28,504.47,752.71
C497.56,758.14,489.55,764.22,482.45,769.43
C475.35,774.64,467.13,780.47,459.85,785.46
C452.57,790.45,444.15,796.03,436.69,800.79
C429.23,805.55,420.62,810.86,412.99,815.39
C405.37,819.92,396.57,824.95,388.79,829.24
C381.01,833.53,372.03,838.29,364.1,842.33
C356.16,846.38,347.02,850.85,338.94,854.64
C330.87,858.43,321.57,862.62,313.36,866.15
C305.15,869.68,295.7,873.57,287.37,876.85
C279.03,880.12,269.44,883.71,260.99,886.71
C252.54,889.72,242.83,893,234.27,895.74
C225.71,898.47,215.88,901.44,207.22,903.9
C198.57,906.37,188.63,909.02,179.88,911.21
C171.14,913.39,161.1,915.72,152.28,917.63
C143.45,919.53,133.33,921.54,124.44,923.16
C115.54,924.78,105.34,926.47,96.39,927.8
C87.44,929.13,77.18,930.49,68.17,931.53
C59.17,932.58,48.86,933.6,39.81,934.36
C30.76,935.11,20.41,935.8,11.33,936.26
C2.26,936.72,-8.12,937.08,-17.22,937.25
C-26.32,937.41,-36.72,937.44,-45.83,937.31
C-54.93,937.18,-65.34,936.87,-74.45,936.44
C-83.56,936.02,-93.96,935.37,-103.06,934.65
C-112.16,933.94,-122.54,932.95,-131.62,931.94
C-140.7,930.92,-151.06,929.6,-160.11,928.29
C-169.16,926.99,-179.48,925.33,-188.49,923.73
C-197.5,922.13,-207.77,920.13,-216.73,918.24
C-225.69,916.35,-235.9,914.02,-244.8,911.84
C-253.7,909.66,-263.83,907,-272.66,904.53
C-281.5,902.06,-291.54,899.08,-300.29,896.32
C-309.05,893.56,-319,890.25,-327.66,887.21
C-336.33,884.18,-346.17,880.54,-354.73,877.22
C-363.3,873.9,-373.02,869.95,-381.48,866.36
C-389.94,862.76,-399.53,858.5,-407.87,854.63
C-416.21,850.76,-425.67,846.19,-433.88,842.05
C-442.1,837.91,-451.4,833.03,-459.48,828.63
C-467.56,824.23,-476.7,819.05,-484.63,814.39
C-492.57,809.73,-501.54,804.26,-509.32,799.34
C-517.1,794.42,-525.89,788.66,-533.51,783.5
C-541.12,778.33,-549.73,772.29,-557.17,766.88
C-564.62,761.47,-573.02,755.16,-580.29,749.51
C-587.56,743.86,-595.75,737.28,-602.83,731.4
C-609.91,725.52,-617.88,718.68,-624.77,712.57
C-631.66,706.47,-639.4,699.37,-646.09,693.05
C-652.77,686.73,-660.29,679.39,-666.76,672.86
C-673.23,666.32,-680.5,658.74,-686.76,652.01
C-693.02,645.27,-700.04,637.46,-706.07,630.53
C-712.1,623.6,-718.87,615.57,-724.67,608.45
C-730.47,601.33,-736.97,593.09,-742.54,585.79
C-748.11,578.49,-754.33,570.05,-759.66,562.57
C-764.98,555.1,-770.92,546.47,-776,538.83
C-781.08,531.2,-786.74,522.38,-791.56,514.59
C-796.39,506.8,-801.76,497.81,-806.33,489.87
C-810.9,481.94,-815.96,472.79,-820.27,464.71
C-824.58,456.64,-829.34,447.34,-833.38,439.13
C-837.42,430.93,-841.88,421.49,-845.65,413.17
C-849.42,404.84,-853.57,395.27,-857.06,386.84
C-860.56,378.41,-864.39,368.72,-867.61,360.18
C-870.82,351.65,-874.34,341.85,-877.27,333.23
C-880.21,324.6,-883.4,314.71,-886.05,306
C-888.71,297.3,-891.57,287.32,-893.94,278.54
C-896.31,269.77,-898.85,259.71,-900.93,250.87
C-903.01,242.04,-905.22,231.91,-907.01,223.02
C-908.8,214.14,-910.68,203.96,-912.18,195.03
C-913.68,186.1,-915.22,175.89,-916.43,166.93
C-917.64,157.97,-918.86,147.72,-919.77,138.74
C-920.69,129.76,-921.57,119.49,-922.2,110.5
C-922.82,101.51,-923.37,91.23,-923.7,82.24
C-924.03,73.25,-924.25,62.98,-924.29,53.99
C-924.33,45.01,-924.21,34.75,-923.97,25.79
C-923.72,16.82,-923.27,6.6,-922.73,-2.34
C-922.2,-11.28,-921.42,-21.47,-920.59,-30.37
C-919.77,-39.27,-918.66,-49.41,-917.55,-58.26
C-916.44,-67.11,-915.01,-77.19,-913.62,-85.98
C-912.22,-94.77,-910.47,-104.78,-908.8,-113.51
C-907.12,-122.24,-905.05,-132.16,-903.1,-140.81
C-901.15,-149.46,-898.76,-159.29,-896.54,-167.86
C-894.31,-176.42,-891.62,-186.15,-889.12,-194.62
C-886.62,-203.09,-883.62,-212.71,-880.86,-221.07
C-878.09,-229.44,-874.79,-238.93,-871.76,-247.18
C-868.74,-255.43,-865.13,-264.79,-861.85,-272.92
C-858.57,-281.05,-854.67,-290.26,-851.14,-298.27
C-847.6,-306.27,-843.42,-315.33,-839.63,-323.19
C-835.85,-331.05,-831.39,-339.95,-827.36,-347.67
C-823.33,-355.38,-818.6,-364.11,-814.34,-371.67
C-810.07,-379.23,-805.07,-387.78,-800.58,-395.18
C-796.08,-402.58,-790.82,-410.93,-786.1,-418.16
C-781.38,-425.39,-775.87,-433.55,-770.93,-440.6
C-766,-447.66,-760.24,-455.61,-755.09,-462.48
C-749.94,-469.35,-743.94,-477.09,-738.59,-483.77
C-733.24,-490.45,-727.01,-497.97,-721.47,-504.45
C-715.92,-510.94,-709.47,-518.23,-703.73,-524.51
C-697.99,-530.79,-691.33,-537.84,-685.41,-543.92
C-679.49,-549.99,-672.63,-556.8,-666.54,-562.66
C-660.44,-568.52,-653.38,-575.09,-647.12,-580.72
C-640.86,-586.36,-633.62,-592.68,-627.2,-598.09
C-620.78,-603.51,-613.36,-609.56,-606.79,-614.75
C-600.22,-619.94,-592.64,-625.72,-585.93,-630.68
C-579.22,-635.63,-571.47,-641.16,-564.63,-645.87
C-557.79,-650.59,-549.9,-655.84,-542.93,-660.31
C-535.96,-664.78,-527.94,-669.76,-520.85,-673.99
C-513.77,-678.22,-505.62,-682.91,-498.43,-686.89
C-491.24,-690.88,-482.97,-695.28,-475.68,-699.02
C-468.39,-702.75,-460.02,-706.87,-452.64,-710.35
C-445.26,-713.84,-436.79,-717.67,-429.34,-720.89
C-421.88,-724.12,-413.32,-727.66,-405.8,-730.63
C-398.27,-733.6,-389.64,-736.85,-382.05,-739.56
C-374.46,-742.28,-365.76,-745.23,-358.13,-747.68
C-350.49,-750.14,-341.73,-752.79,-334.05,-754.99
C-326.37,-757.19,-317.57,-759.55,-309.86,-761.48
C-302.14,-763.42,-293.31,-765.48,-285.57,-767.16
C-277.83,-768.84,-268.97,-770.6,-261.22,-772.02
C-253.46,-773.44,-244.6,-774.91,-236.83,-776.07
C-229.07,-777.23,-220.2,-778.41,-212.44,-779.31
C-204.68,-780.21,-195.82,-781.09,-188.07,-781.74
C-180.32,-782.39,-171.48,-782.98,-163.75,-783.37
C-156.02,-783.76,-147.21,-784.06,-139.51,-784.2
C-131.81,-784.34,-123.03,-784.35,-115.37,-784.24
C-107.71,-784.13,-98.98,-783.86,-91.36,-783.5
C-83.75,-783.14,-75.08,-782.59,-67.52,-781.98
C-59.95,-781.38,-51.35,-780.54,-43.85,-779.7
C-36.35,-778.85,-27.83,-777.75,-20.4,-776.66
C-12.97,-775.58,-4.53,-774.2,2.82,-772.88
C10.16,-771.56,18.51,-769.92,25.77,-768.37
C33.03,-766.82,41.28,-764.92,48.45,-763.14
C55.61,-761.36,63.74,-759.21,70.81,-757.21
C77.87,-755.21,85.88,-752.8,92.84,-750.58
C99.8,-748.37,107.68,-745.71,114.52,-743.29
C121.36,-740.86,129.1,-737.96,135.82,-735.33
C142.54,-732.7,150.14,-729.57,156.73,-726.73
C163.32,-723.9,170.77,-720.54,177.22,-717.51
C183.68,-714.48,190.96,-710.91,197.28,-707.69
C203.59,-704.46,210.71,-700.68,216.88,-697.27
C223.04,-693.87,229.99,-689.88,236,-686.29
C242.02,-682.71,248.79,-678.52,254.64,-674.77
C260.5,-671.02,267.08,-666.63,272.77,-662.72
C278.46,-658.8,284.86,-654.23,290.38,-650.16
C295.9,-646.09,302.11,-641.34,307.46,-637.12
C312.8,-632.9,318.81,-627.99,323.98,-623.62
C329.15,-619.25,334.95,-614.18,339.94,-609.68
C344.92,-605.18,350.52,-599.96,355.32,-595.32
C360.12,-590.69,365.5,-585.33,370.12,-580.58
C374.73,-575.82,379.9,-570.33,384.32,-565.46
C388.75,-560.6,393.69,-554.97,397.92,-550
C402.15,-545.03,406.87,-539.29,410.9,-534.22
C414.93,-529.15,419.43,-523.3,423.26,-518.14
C427.1,-512.98,431.36,-507.03,435,-501.78
C438.63,-496.54,442.67,-490.5,446.1,-485.18
C449.54,-479.86,453.34,-473.75,456.57,-468.36
C459.8,-462.97,463.37,-456.78,466.39,-451.34
C469.42,-445.89,472.76,-439.64,475.58,-434.14
C478.4,-428.64,481.5,-422.33,484.11,-416.79
C486.73,-411.25,489.59,-404.9,492,-399.32
C494.41,-393.74,497.05,-387.35,499.25,-381.74
C501.46,-376.14,503.86,-369.72,505.86,-364.09
C507.86,-358.46,510.02,-352.02,511.82,-346.38
C513.62,-340.74,515.55,-334.3,517.14,-328.65
C518.74,-323,520.44,-316.55,521.83,-310.91
C523.22,-305.27,524.7,-298.82,525.89,-293.19
C527.08,-287.55,528.33,-281.12,529.32,-275.51
C530.32,-269.89,531.34,-263.48,532.14,-257.89
C532.94,-252.29,533.74,-245.92,534.35,-240.35
C534.96,-234.79,535.54,-228.45,535.96,-222.93
C536.37,-217.4,536.74,-211.11,536.97,-205.63
C537.2,-200.15,537.35,-193.91,537.4,-188.48
C537.44,-183.05,537.39,-176.88,537.25,-171.5
C537.12,-166.13,536.86,-160.03,536.55,-154.72
C536.24,-149.4,535.78,-143.38,535.3,-138.14
C534.81,-132.9,534.16,-126.95,533.51,-121.78
C532.86,-116.62,532.01,-110.76,531.19,-105.68
C530.38,-100.59,529.35,-94.83,528.37,-89.84
C527.39,-84.84,526.19,-79.18,525.05,-74.27
C523.92,-69.37,522.54,-63.82,521.26,-59.01
C519.97,-54.2,518.42,-48.76,517,-44.05
C515.57,-39.34,513.85,-34.03,512.28,-29.42
C510.72,-24.82,508.85,-19.63,507.14,-15.14
C505.44,-10.65,503.42,-5.58,501.59,-1.2
C499.76,3.17,497.59,8.11,495.64,12.36
C493.68,16.62,491.38,21.42,489.31,25.55
C487.24,29.69,484.8,34.34,482.62,38.36
C480.44,42.37,477.88,46.87,475.59,50.76
C473.3,54.64,470.63,59,468.24,62.75
C465.85,66.5,463.06,70.71,460.58,74.33
C458.1,77.95,455.21,82,452.64,85.48
C450.07,88.96,447.09,92.86,444.44,96.2
C441.79,99.55,438.71,103.28,435.99,106.49
C433.26,109.69,430.11,113.27,427.31,116.33
C424.52,119.4,421.29,122.81,418.43,125.73
C415.58,128.65,412.28,131.9,409.37,134.67
C406.46,137.45,403.1,140.54,400.14,143.17
C397.18,145.8,393.77,148.72,390.77,151.21
C387.77,153.69,384.31,156.45,381.27,158.79
C378.23,161.13,374.74,163.72,371.67,165.92
C368.6,168.12,365.08,170.54,361.98,172.6
C358.89,174.65,355.34,176.91,352.23,178.82
C349.12,180.73,345.55,182.82,342.43,184.59
C339.31,186.35,335.73,188.29,332.6,189.91
C329.48,191.54,325.9,193.31,322.77,194.79
C319.64,196.28,316.07,197.89,312.95,199.23
C309.82,200.58,306.26,202.03,303.15,203.24
C300.04,204.45,296.5,205.75,293.4,206.82
C290.31,207.9,286.79,209.04,283.72,209.98
C280.65,210.92,277.16,211.92,274.12,212.73
C271.08,213.54,267.62,214.39,264.62,215.08
C261.61,215.76,258.2,216.46,255.23,217.02
C252.26,217.58,248.9,218.15,245.98,218.59
C243.05,219.03,239.74,219.46,236.87,219.78
C233.99,220.1,230.74,220.4,227.92,220.6
C225.1,220.81,221.91,220.98,219.14,221.07
C216.38,221.17,213.26,221.21,210.56,221.2
C207.86,221.19,204.81,221.12,202.18,221
C199.54,220.89,196.57,220.7,194.01,220.49
C191.44,220.28,188.56,219.98,186.06,219.68
C183.58,219.37,180.77,218.97,178.36,218.57
C175.95,218.18,173.24,217.67,170.9,217.19
C168.57,216.72,165.96,216.12,163.71,215.56
C161.46,215,158.94,214.32,156.78,213.68
C154.61,213.05,152.19,212.28,150.12,211.57
C148.04,210.87,145.73,210.02,143.75,209.25
C141.76,208.48,139.55,207.57,137.66,206.74
C135.77,205.91,133.67,204.93,131.88,204.04
C130.08,203.16,128.09,202.11,126.39,201.18
C124.69,200.24,122.81,199.15,121.21,198.17
C119.61,197.19,117.84,196.05,116.34,195.03
C114.84,194.02,113.18,192.83,111.78,191.78
C110.38,190.73,108.84,189.51,107.54,188.43
C106.24,187.35,104.82,186.1,103.62,185
C102.42,183.9,101.11,182.63,100.02,181.51
C98.92,180.39,97.72,179.1,96.73,177.97
C95.73,176.84,94.65,175.54,93.76,174.4
C92.86,173.26,91.9,171.96,91.11,170.82
C90.31,169.68,89.46,168.38,88.76,167.24
C88.07,166.1,87.33,164.81,86.74,163.68
C86.14,162.55,85.51,161.27,85.01,160.16
C84.51,159.05,84,157.78,83.59,156.69
C83.19,155.6,82.78,154.36,82.47,153.29
C82.16,152.22,81.86,151.01,81.64,149.97
C81.42,148.93,81.22,147.76,81.09,146.75
C80.96,145.74,80.87,144.62,80.82,143.65
C80.78,142.68,80.78,141.59,80.82,140.67
C80.87,139.74,80.96,138.71,81.09,137.83
C81.21,136.95,81.4,135.98,81.6,135.15
C81.8,134.33,82.08,133.41,82.36,132.64
C82.64,131.87,83,131.02,83.35,130.31
C83.7,129.6,84.14,128.82,84.56,128.17
C84.97,127.53,85.49,126.82,85.98,126.24
C86.46,125.66,87.05,125.04,87.59,124.53
C88.13,124.02,88.79,123.47,89.39,123.04
C89.99,122.6,90.71,122.14,91.36,121.78
C92.02,121.42,92.79,121.06,93.49,120.78
C94.2,120.5,95.03,120.22,95.77,120.02
C96.52,119.83,97.39,119.65,98.18,119.54
C98.96,119.42,99.88,119.34,100.7,119.32
C101.52,119.29,102.47,119.31,103.32,119.37
C104.17,119.44,105.16,119.56,106.03,119.71
C106.9,119.86,107.91,120.09,108.81,120.34
C109.7,120.58,110.73,120.92,111.64,121.26
C112.55,121.6,113.59,122.04,114.51,122.47
C115.43,122.91,116.48,123.46,117.4,123.99
C118.32,124.52,119.38,125.18,120.3,125.8
C121.22,126.43,122.27,127.2,123.19,127.92
C124.1,128.64,125.15,129.52,126.05,130.34
C126.95,131.16,127.98,132.15,128.87,133.07
C129.75,133.99,130.76,135.09,131.62,136.1
C132.49,137.11,133.46,138.32,134.3,139.43
C135.14,140.54,136.08,141.86,136.89,143.06
C137.7,144.26,138.6,145.69,139.37,146.99
C140.14,148.29,140.99,149.82,141.72,151.21
C142.44,152.6,143.25,154.24,143.92,155.72
C144.6,157.2,145.35,158.94,145.98,160.51
C146.6,162.08,147.28,163.92,147.85,165.58
C148.42,167.23,149.03,169.17,149.54,170.92
C150.04,172.66,150.58,174.69,151.02,176.52
C151.45,178.34,151.91,180.47,152.28,182.37
C152.64,184.27,153.02,186.49,153.3,188.47
C153.59,190.45,153.87,192.76,154.08,194.81
C154.28,196.86,154.47,199.25,154.59,201.37
C154.71,203.5,154.8,205.96,154.83,208.15
C154.86,210.34,154.84,212.88,154.78,215.13
C154.71,217.39,154.58,219.99,154.42,222.31
C154.26,224.62,154.02,227.29,153.75,229.66
C153.49,232.02,153.13,234.76,152.76,237.17
C152.39,239.59,151.91,242.38,151.43,244.84
C150.95,247.3,150.34,250.14,149.75,252.65
C149.16,255.15,148.42,258.03,147.71,260.57
C147,263.12,146.13,266.04,145.31,268.61
C144.48,271.18,143.48,274.13,142.53,276.73
C141.59,279.33,140.44,282.31,139.37,284.93
C138.31,287.55,137.02,290.55,135.82,293.19
C134.63,295.82,133.2,298.84,131.88,301.48
C130.56,304.13,128.98,307.16,127.53,309.8
C126.08,312.45,124.36,315.48,122.78,318.13
C121.2,320.78,119.32,323.8,117.61,326.44
C115.9,329.08,113.87,332.1,112.03,334.72
C110.19,337.35,108.01,340.35,106.03,342.96
C104.06,345.57,101.72,348.54,99.62,351.12
C97.51,353.7,95.02,356.64,92.78,359.2
C90.53,361.75,87.9,364.65,85.52,367.17
C83.14,369.68,80.35,372.54,77.84,375.01
C75.32,377.48,72.38,380.29,69.74,382.71
C67.09,385.14,64,387.88,61.22,390.25
C58.44,392.62,55.2,395.29,52.29,397.6
C49.38,399.91,45.99,402.51,42.95,404.75
C39.91,406.99,36.37,409.51,33.2,411.68
C30.03,413.85,26.35,416.28,23.05,418.37
C19.76,420.46,15.93,422.8,12.51,424.8
C9.09,426.8,5.12,429.04,1.58,430.95
C-1.96,432.86,-6.07,434.99,-9.73,436.81
C-13.39,438.62,-17.63,440.64,-21.41,442.35
C-25.18,444.06,-29.56,445.95,-33.45,447.56
C-37.34,449.16,-41.84,450.93,-45.84,452.41
C-49.84,453.9,-54.47,455.53,-58.58,456.9
C-62.68,458.27,-67.43,459.76,-71.64,461.01
C-75.84,462.25,-80.71,463.6,-85.01,464.71
C-89.32,465.82,-94.29,467.02,-98.69,468
C-103.09,468.98,-108.17,470.02,-112.66,470.85
C-117.15,471.69,-122.33,472.57,-126.9,473.26
C-131.48,473.95,-136.75,474.66,-141.4,475.2
C-146.06,475.74,-151.42,476.28,-156.14,476.67
C-160.87,477.06,-166.32,477.41,-171.11,477.64
C-175.91,477.88,-181.43,478.05,-186.29,478.12
C-191.15,478.19,-196.74,478.18,-201.66,478.08
C-206.58,477.98,-212.22,477.78,-217.2,477.51
C-222.17,477.24,-227.87,476.84,-232.89,476.4
C-237.9,475.96,-243.66,475.36,-248.72,474.75
C-253.77,474.13,-259.56,473.33,-264.65,472.54
C-269.74,471.74,-275.57,470.74,-280.69,469.76
C-285.8,468.79,-291.66,467.57,-296.79,466.41
C-301.93,465.25,-307.8,463.83,-312.95,462.48
C-318.09,461.14,-323.98,459.49,-329.13,457.96
C-334.28,456.43,-340.17,454.57,-345.32,452.85
C-350.47,451.13,-356.36,449.06,-361.5,447.14
C-366.64,445.23,-372.51,442.94,-377.64,440.84
C-382.76,438.73,-388.61,436.22,-393.71,433.92
C-398.82,431.63,-404.63,428.9,-409.71,426.41
C-414.78,423.92,-420.56,420.96,-425.59,418.28
C-430.63,415.6,-436.36,412.43,-441.35,409.55
C-446.34,406.68,-452.01,403.28,-456.95,400.21
C-461.88,397.14,-467.49,393.53,-472.37,390.27
C-477.25,387.01,-482.78,383.18,-487.59,379.73
C-492.4,376.28,-497.85,372.23,-502.59,368.59
C-507.32,364.95,-512.68,360.68,-517.34,356.85
C-521.99,353.02,-527.25,348.54,-531.81,344.53
C-536.37,340.51,-541.53,335.82,-545.99,331.62
C-550.45,327.42,-555.49,322.52,-559.85,318.14
C-564.21,313.76,-569.12,308.66,-573.37,304.09
C-577.62,299.53,-582.4,294.23,-586.52,289.49
C-590.65,284.76,-595.29,279.25,-599.29,274.34
C-603.29,269.43,-607.78,263.73,-611.65,258.65
C-615.51,253.57,-619.85,247.68,-623.57,242.44
C-627.3,237.19,-631.47,231.11,-635.05,225.71
C-638.62,220.3,-642.62,214.04,-646.04,208.48
C-649.47,202.92,-653.29,196.49,-656.55,190.78
C-659.81,185.06,-663.44,178.45,-666.54,172.6
C-669.63,166.74,-673.07,159.96,-675.99,153.96
C-678.91,147.96,-682.14,141.03,-684.89,134.9
C-687.63,128.76,-690.66,121.68,-693.21,115.41
C-695.77,109.14,-698.58,101.92,-700.95,95.53
C-703.31,89.14,-705.9,81.77,-708.07,75.26
C-710.24,68.75,-712.61,61.25,-714.57,54.63
C-716.54,48.01,-718.67,40.39,-720.43,33.66
C-722.19,26.94,-724.08,19.2,-725.63,12.38
C-727.18,5.55,-728.83,-2.29,-730.17,-9.21
C-731.5,-16.12,-732.9,-24.07,-734.01,-31.07
C-735.12,-38.06,-736.27,-46.1,-737.16,-53.17
C-738.05,-60.25,-738.94,-68.37,-739.6,-75.51
C-740.26,-82.65,-740.88,-90.85,-741.31,-98.05
C-741.74,-105.26,-742.1,-113.52,-742.3,-120.77
C-742.49,-128.03,-742.58,-136.34,-742.54,-143.65
C-742.49,-150.95,-742.31,-159.31,-742.03,-166.65
C-741.75,-173.98,-741.29,-182.38,-740.76,-189.75
C-740.24,-197.12,-739.5,-205.54,-738.73,-212.93
C-737.96,-220.31,-736.94,-228.76,-735.93,-236.16
C-734.91,-243.55,-733.61,-252,-732.35,-259.4
C-731.08,-266.8,-729.5,-275.25,-727.99,-282.65
C-726.47,-290.04,-724.61,-298.48,-722.84,-305.86
C-721.08,-313.24,-718.93,-321.65,-716.92,-329.01
C-714.91,-336.36,-712.47,-344.74,-710.21,-352.07
C-707.94,-359.39,-705.22,-367.73,-702.71,-375.01
C-700.2,-382.29,-697.19,-390.58,-694.43,-397.81
C-691.66,-405.04,-688.37,-413.27,-685.36,-420.44
C-682.35,-427.61,-678.78,-435.76,-675.52,-442.86
C-672.26,-449.97,-668.4,-458.04,-664.9,-465.06
C-661.4,-472.08,-657.26,-480.06,-653.52,-487
C-649.77,-493.94,-645.35,-501.81,-641.37,-508.66
C-637.38,-515.5,-632.69,-523.26,-628.46,-530
C-624.24,-536.74,-619.27,-544.38,-614.81,-551
C-610.35,-557.63,-605.12,-565.14,-600.42,-571.64
C-595.72,-578.15,-590.23,-585.51,-585.3,-591.89
C-580.38,-598.27,-574.62,-605.47,-569.47,-611.71
C-564.32,-617.95,-558.31,-625,-552.94,-631.09
C-547.56,-637.18,-541.3,-644.06,-535.71,-650
C-530.12,-655.94,-523.62,-662.63,-517.81,-668.41
C-512.01,-674.18,-505.26,-680.69,-499.25,-686.29
C-493.24,-691.9,-486.26,-698.21,-480.05,-703.64
C-473.83,-709.06,-466.63,-715.16,-460.22,-720.4
C-453.81,-725.65,-446.38,-731.53,-439.78,-736.58
C-433.18,-741.63,-425.53,-747.29,-418.75,-752.14
C-411.96,-756.99,-404.11,-762.42,-397.15,-767.06
C-390.19,-771.71,-382.14,-776.89,-375.01,-781.32
C-367.87,-785.75,-359.63,-790.69,-352.33,-794.9
C-345.03,-799.12,-336.61,-803.8,-329.15,-807.78
C-321.7,-811.77,-313.09,-816.19,-305.49,-819.95
C-297.88,-823.7,-289.12,-827.85,-281.37,-831.37
C-273.62,-834.89,-264.7,-838.77,-256.82,-842.04
C-248.94,-845.31,-239.86,-848.91,-231.85,-851.94
C-223.85,-854.96,-214.63,-858.28,-206.51,-861.05
C-198.38,-863.82,-189.04,-866.84,-180.81,-869.36
C-172.57,-871.87,-163.11,-874.59,-154.78,-876.85
C-146.44,-879.1,-136.87,-881.52,-128.44,-883.51
C-120.02,-885.5,-110.34,-887.61,-101.83,-889.33
C-93.33,-891.05,-83.56,-892.86,-74.98,-894.3
C-66.4,-895.75,-56.56,-897.24,-47.91,-898.41
C-39.27,-899.58,-29.35,-900.76,-20.65,-901.65
C-11.95,-902.54,-1.98,-903.4,6.76,-904
C15.51,-904.62,25.52,-905.15,34.31,-905.48
C43.09,-905.8,53.14,-906.02,61.95,-906.06
C70.76,-906.1,80.83,-905.99,89.66,-905.74
C98.48,-905.5,108.57,-905.06,117.4,-904.53
C126.24,-904,136.32,-903.23,145.15,-902.42
C153.98,-901.6,164.06,-900.5,172.88,-899.4
C181.7,-898.29,191.76,-896.86,200.55,-895.47
C209.34,-894.08,219.37,-892.33,228.13,-890.65
C236.89,-888.97,246.88,-886.88,255.6,-884.92
C264.32,-882.95,274.25,-880.54,282.91,-878.29
C291.58,-876.04,301.44,-873.31,310.05,-870.78
C318.65,-868.24,328.44,-865.18,336.97,-862.37
C345.5,-859.55,355.2,-856.17,363.65,-853.08
C372.1,-849.98,381.71,-846.29,390.07,-842.91
C398.42,-839.54,407.92,-835.53,416.17,-831.88
C424.43,-828.24,433.8,-823.92,441.95,-820
C450.1,-816.08,459.34,-811.45,467.37,-807.26
C475.39,-803.08,484.49,-798.15,492.39,-793.7
C500.29,-789.25,509.23,-784.02,517,-779.31
C524.76,-774.6,533.54,-769.08,541.15,-764.11
C548.76,-759.15,557.37,-753.34,564.83,-748.13
C572.29,-742.92,580.72,-736.82,588.01,-731.36
C595.3,-725.91,603.54,-719.54,610.66,-713.84
C617.78,-708.14,625.81,-701.5,632.75,-695.58
C639.69,-689.65,647.51,-682.74,654.26,-676.58
C661.02,-670.43,668.62,-663.27,675.17,-656.89
C681.72,-650.52,689.1,-643.11,695.44,-636.52
C701.8,-629.93,708.93,-622.28,715.07,-615.48
C721.2,-608.68,728.09,-600.8,734.01,-593.81
C739.93,-586.81,746.56,-578.7,752.26,-571.51
C757.95,-564.32,764.32,-556,769.79,-548.63
C775.25,-541.26,781.35,-532.73,786.58,-525.18
C791.8,-517.62,797.63,-508.9,802.6,-501.18
C807.58,-493.46,813.13,-484.55,817.86,-476.67
C822.59,-468.79,827.84,-459.7,832.32,-451.67
C836.79,-443.63,841.75,-434.38,845.96,-426.2
C850.18,-418.03,854.84,-408.61,858.78,-400.3
C862.73,-391.99,867.08,-382.43,870.76,-373.99
C874.44,-365.56,878.48,-355.86,881.89,-347.31
C885.29,-338.76,889.02,-328.93,892.14,-320.28
C895.27,-311.62,898.68,-301.68,901.52,-292.92
C904.37,-284.17,907.45,-274.12,910.01,-265.28
C912.57,-256.44,915.33,-246.3,917.6,-237.38
C919.88,-228.46,922.31,-218.24,924.29,-209.25
C926.27,-200.27,928.37,-189.97,930.06,-180.93
C931.75,-171.89,933.52,-161.53,934.91,-152.44
C936.31,-143.35,937.74,-132.94,938.84,-123.82
C939.94,-114.69,941.03,-104.24,941.84,-95.09
C942.65,-85.94,943.4,-75.47,943.91,-66.3
C944.42,-57.12,944.83,-46.64,945.04,-37.46
C945.26,-28.28,945.33,-17.8,945.25,-8.62
C945.16,0.56,944.9,11.03,944.52,20.2
C944.14,29.36,943.53,39.82,942.86,48.96
C942.18,58.1,941.24,68.52,940.27,77.63
C939.3,86.74,938.03,97.12,936.76,106.18
C935.5,115.25,933.89,125.57,932.34,134.58
C930.78,143.6,928.84,153.85,927,162.8
C925.16,171.75,922.88,181.93,920.76,190.81
C918.63,199.69,916.03,209.78,913.62,218.57
C911.2,227.36,908.29,237.36,905.6,246.06
C902.9,254.76,899.67,264.65,896.7,273.25
C893.73,281.85,890.18,291.61,886.94,300.1
C883.69,308.59,879.84,318.22,876.32,326.59
C872.81,334.96,868.65,344.45,864.88,352.7
C861.1,360.94,856.64,370.27,852.6,378.38
C848.57,386.48,843.82,395.66,839.53,403.62
C835.24,411.58,830.2,420.58,825.66,428.39
C821.12,436.19,815.8,445.01,811.02,452.66
C806.24,460.3,800.65,468.93,795.63,476.4
C790.61,483.88,784.75,492.31,779.5,499.6
C774.26,506.9,768.13,515.12,762.66,522.23
C757.19,529.34,750.82,537.35,745.13,544.26
C739.44,551.18,732.82,558.96,726.93,565.68
C721.03,572.39,714.17,579.95,708.07,586.46
C701.97,592.96,694.89,600.28,688.59,606.57
C682.3,612.87,675,619.93,668.52,626.01
C662.03,632.08,654.52,638.9,647.86,644.75
C641.2,650.6,633.48,657.15,626.65,662.77
C619.82,668.39,611.92,674.68,604.92,680.06
C597.92,685.45,589.84,691.46,582.69,696.6
C575.53,701.75,567.28,707.48,559.98,712.38
C552.68,717.28,544.27,722.73,536.83,727.38
C529.4,732.03,520.83,737.19,513.27,741.59
C505.7,745.98,496.99,750.85,489.31,754.99
C481.63,759.13,472.79,763.7,465,767.58
C457.2,771.45,448.24,775.73,440.35,779.34
C432.46,782.95,423.38,786.93,415.4,790.27
C407.42,793.62,398.25,797.28,390.18,800.36
C382.12,803.44,372.86,806.79,364.72,809.6
C356.58,812.4,347.24,815.45,339.04,817.98
C330.84,820.52,321.44,823.25,313.18,825.51
C304.93,827.77,295.47,830.19,287.17,832.18
C278.87,834.16,269.37,836.27,261.03,837.98
C252.7,839.69,243.16,841.48,234.81,842.91
C226.45,844.35,216.89,845.82,208.51,846.98
C200.14,848.14,190.57,849.3,182.19,850.19
C173.81,851.07,164.24,851.92,155.86,852.53
C147.49,853.14,137.93,853.67,129.56,854.01
C121.2,854.34,111.66,854.57,103.32,854.63
C94.98,854.69,85.47,854.61,77.16,854.4
C68.85,854.2,59.39,853.8,51.12,853.33
C42.85,852.85,33.44,852.16,25.22,851.42
C17,850.68,7.65,849.68,-0.51,848.68
C-8.67,847.67,-17.95,846.38,-26.04,845.12
C-34.13,843.85,-43.33,842.26,-51.34,840.74
C-59.36,839.23,-68.46,837.34,-76.39,835.57
C-84.32,833.8,-93.32,831.63,-101.16,829.61
C-108.99,827.59,-117.88,825.15,-125.62,822.88
C-133.35,820.62,-142.12,817.89,-149.75,815.39
C-157.37,812.88,-166.01,809.89,-173.52,807.15
C-181.03,804.41,-189.53,801.15,-196.91,798.18
C-204.29,795.21,-212.65,791.69,-219.9,788.5
C-227.14,785.3,-235.34,781.53,-242.45,778.12
C-249.56,774.71,-257.6,770.69,-264.56,767.06
C-271.52,763.44,-279.39,759.18,-286.2,755.34
C-293.01,751.51,-300.69,747.02,-307.34,742.99
C-313.99,738.95,-321.49,734.24,-327.98,730.01
C-334.46,725.78,-341.77,720.84,-348.08,716.43
C-354.39,712.02,-361.5,706.87,-367.63,702.28
C-373.76,697.68,-380.66,692.33,-386.61,687.57
C-392.56,682.8,-399.25,677.26,-405.02,672.32
C-410.78,667.39,-417.25,661.66,-422.82,656.57
C-428.39,651.47,-434.64,645.57,-440.01,640.32
C-445.38,635.08,-451.4,629.01,-456.57,623.62
C-461.74,618.23,-467.52,612,-472.49,606.48
C-477.45,600.95,-483,594.57,-487.76,588.92
C-492.51,583.27,-497.82,576.74,-502.36,570.97
C-506.9,565.2,-511.97,558.55,-516.29,552.66
C-520.62,546.78,-525.44,540,-529.54,534.02
C-533.65,528.03,-538.21,521.14,-542.1,515.06
C-545.99,508.98,-550.3,501.98,-553.96,495.81
C-557.63,489.65,-561.68,482.56,-565.12,476.31
C-568.56,470.06,-572.36,462.89,-575.57,456.57
C-578.78,450.26,-582.32,443.01,-585.3,436.63
C-588.29,430.25,-591.57,422.94,-594.32,416.5
C-597.08,410.07,-600.1,402.7,-602.63,396.22
C-605.16,389.75,-607.91,382.33,-610.21,375.82
C-612.51,369.3,-615.01,361.85,-617.08,355.31
C-619.15,348.77,-621.38,341.28,-623.23,334.72
C-625.07,328.16,-627.04,320.66,-628.66,314.09
C-630.27,307.52,-631.99,300.01,-633.38,293.43
C-634.76,286.86,-636.22,279.35,-637.38,272.78
C-638.55,266.2,-639.75,258.7,-640.69,252.15
C-641.63,245.59,-642.57,238.11,-643.29,231.57
C-644.01,225.03,-644.7,217.58,-645.2,211.07
C-645.7,204.56,-646.15,197.14,-646.43,190.67
C-646.71,184.2,-646.91,176.82,-646.98,170.39
C-647.05,163.96,-647,156.65,-646.86,150.27
C-646.72,143.89,-646.44,136.63,-646.09,130.31
C-645.74,123.99,-645.22,116.8,-644.67,110.55
C-644.11,104.29,-643.36,97.19,-642.61,91
C-641.85,84.82,-640.88,77.79,-639.93,71.69
C-638.98,65.58,-637.78,58.66,-636.64,52.64
C-635.5,46.62,-634.08,39.79,-632.75,33.86
C-631.42,27.93,-629.8,21.21,-628.28,15.38
C-626.77,9.55,-624.94,2.95,-623.25,-2.78
C-621.56,-8.51,-619.53,-14.99,-617.67,-20.61
C-615.81,-26.23,-613.58,-32.58,-611.55,-38.08
C-609.52,-43.59,-607.11,-49.81,-604.92,-55.19
C-602.73,-60.58,-600.13,-66.66,-597.78,-71.92
C-595.44,-77.18,-592.67,-83.11,-590.17,-88.24
C-587.67,-93.37,-584.74,-99.16,-582.1,-104.15
C-579.45,-109.15,-576.35,-114.78,-573.57,-119.63
C-570.8,-124.49,-567.54,-129.96,-564.63,-134.67
C-561.72,-139.39,-558.32,-144.69,-555.28,-149.26
C-552.25,-153.83,-548.71,-158.97,-545.55,-163.39
C-542.4,-167.81,-538.72,-172.77,-535.46,-177.04
C-532.19,-181.31,-528.39,-186.1,-525.02,-190.21
C-521.64,-194.32,-517.73,-198.93,-514.26,-202.88
C-510.79,-206.84,-506.76,-211.27,-503.2,-215.06
C-499.64,-218.86,-495.51,-223.1,-491.86,-226.73
C-488.21,-230.36,-483.99,-234.42,-480.26,-237.89
C-476.54,-241.36,-472.23,-245.23,-468.43,-248.53
C-464.63,-251.83,-460.25,-255.51,-456.39,-258.65
C-452.52,-261.79,-448.07,-265.27,-444.15,-268.24
C-440.23,-271.21,-435.72,-274.51,-431.74,-277.31
C-427.77,-280.11,-423.2,-283.21,-419.19,-285.84
C-415.17,-288.48,-410.56,-291.39,-406.5,-293.86
C-402.45,-296.32,-397.8,-299.04,-393.71,-301.33
C-389.63,-303.63,-384.95,-306.15,-380.84,-308.28
C-376.73,-310.41,-372.03,-312.75,-367.9,-314.71
C-363.78,-316.67,-359.06,-318.81,-354.93,-320.61
C-350.79,-322.4,-346.06,-324.36,-341.93,-325.99
C-337.79,-327.62,-333.06,-329.39,-328.93,-330.86
C-324.79,-332.32,-320.07,-333.9,-315.95,-335.21
C-311.82,-336.52,-307.12,-337.92,-303.01,-339.06
C-298.9,-340.21,-294.22,-341.43,-290.13,-342.42
C-286.04,-343.41,-281.38,-344.45,-277.32,-345.28
C-273.26,-346.12,-268.64,-346.98,-264.62,-347.67
C-260.59,-348.35,-256.02,-349.04,-252.03,-349.58
C-248.04,-350.11,-243.51,-350.64,-239.57,-351.02
C-235.63,-351.41,-231.15,-351.77,-227.26,-352.02
C-223.37,-352.26,-218.96,-352.46,-215.12,-352.57
C-211.28,-352.68,-206.94,-352.72,-203.16,-352.7
C-199.39,-352.67,-195.11,-352.56,-191.4,-352.4
C-187.69,-352.24,-183.49,-351.99,-179.85,-351.7
C-176.21,-351.42,-172.1,-351.02,-168.53,-350.61
C-164.97,-350.2,-160.94,-349.67,-157.46,-349.14
C-153.97,-348.62,-150.03,-347.95,-146.63,-347.31
C-143.23,-346.67,-139.39,-345.88,-136.07,-345.13
C-132.76,-344.38,-129.02,-343.47,-125.79,-342.62
C-122.57,-341.76,-118.94,-340.73,-115.8,-339.78
C-112.67,-338.83,-109.15,-337.69,-106.11,-336.65
C-103.08,-335.6,-99.66,-334.36,-96.73,-333.23
C-93.79,-332.1,-90.5,-330.75,-87.66,-329.54
C-84.83,-328.32,-81.65,-326.89,-78.92,-325.6
C-76.19,-324.3,-73.14,-322.79,-70.52,-321.42
C-67.89,-320.06,-64.96,-318.46,-62.45,-317.03
C-59.93,-315.6,-57.13,-313.93,-54.72,-312.44
C-52.32,-310.94,-49.64,-309.21,-47.35,-307.66
C-45.06,-306.11,-42.51,-304.31,-40.33,-302.72
C-38.15,-301.12,-35.73,-299.27,-33.66,-297.63
C-31.6,-295.99,-29.3,-294.09,-27.35,-292.42
C-25.4,-290.74,-23.24,-288.8,-21.41,-287.09
C-19.57,-285.38,-17.54,-283.4,-15.82,-281.67
C-14.1,-279.93,-12.21,-277.93,-10.6,-276.17
C-9,-274.41,-7.23,-272.39,-5.74,-270.62
C-4.25,-268.84,-2.61,-266.81,-1.24,-265.02
C0.14,-263.24,1.65,-261.19,2.91,-259.4
C4.17,-257.62,5.55,-255.57,6.7,-253.78
C7.86,-251.99,9.1,-249.95,10.15,-248.17
C11.19,-246.39,12.31,-244.36,13.24,-242.59
C14.17,-240.82,15.18,-238.8,16,-237.05
C16.82,-235.29,17.7,-233.3,18.42,-231.57
C19.14,-229.84,19.9,-227.87,20.52,-226.17
C21.13,-224.46,21.77,-222.53,22.29,-220.86
C22.8,-219.18,23.34,-217.29,23.75,-215.66
C24.17,-214.02,24.59,-212.17,24.91,-210.58
C25.23,-208.98,25.54,-207.18,25.77,-205.63
C26,-204.08,26.21,-202.34,26.35,-200.84
C26.49,-199.33,26.6,-197.65,26.66,-196.2
C26.71,-194.75,26.72,-193.13,26.7,-191.74
C26.67,-190.35,26.59,-188.8,26.49,-187.47
C26.38,-186.15,26.22,-184.66,26.04,-183.4
C25.86,-182.14,25.61,-180.74,25.36,-179.54
C25.11,-178.35,24.79,-177.02,24.47,-175.9
C24.16,-174.78,23.76,-173.54,23.38,-172.49
C23,-171.44,22.54,-170.28,22.1,-169.32
C21.67,-168.34,21.14,-167.28,20.65,-166.39
C20.17,-165.5,19.58,-164.53,19.05,-163.72
C18.51,-162.91,17.87,-162.04,17.29,-161.31
C16.72,-160.59,16.03,-159.81,15.41,-159.17
C14.8,-158.53,14.07,-157.85,13.42,-157.3
C12.77,-156.76,12.01,-156.18,11.33,-155.72
C10.66,-155.26,9.86,-154.78,9.16,-154.41
C8.46,-154.04,7.65,-153.67,6.93,-153.4
C6.21,-153.12,5.38,-152.85,4.65,-152.67
C3.92,-152.48,3.07,-152.32,2.33,-152.23
C1.59,-152.14,0.74,-152.08,0,-152.08Z"/></svg>